<svg width="75" height="31" viewBox="0 0 75 31" fill="none" xmlns="http://www.w3.org/2000/svg">
<path fill-rule="evenodd" clip-rule="evenodd" d="M0.359889 27.1096C0.258229 27.0568 0.186725 26.9867 0.156519 26.7589C0.0931127 26.2885 0.549803 25.4238 0.574353 25.3599C0.912211 24.6974 1.30606 24.0644 1.74082 23.4576C2.38557 22.5578 3.11908 21.7192 3.86596 20.9174C4.66898 20.0715 5.51821 19.2812 6.43577 18.5904C7.36484 17.8914 8.35396 17.2842 9.38856 16.7728C10.0102 16.4661 10.6472 16.192 11.3032 15.9674C12.8085 15.452 14.382 15.1605 16.009 15.0537C16.0569 15.0474 16.1005 15.0812 16.107 15.1294C16.1135 15.1776 16.0798 15.2222 16.0314 15.2287C14.4763 15.5507 13.0166 16.0841 11.6115 16.7406C11.0113 17.0219 10.4228 17.3217 9.84684 17.6472C8.89182 18.1879 7.9806 18.803 7.10366 19.4766C6.23598 20.1429 5.39598 20.8576 4.6171 21.649C3.99204 22.2702 3.37945 22.9187 2.80961 23.6018C2.24532 24.2792 1.72232 24.9872 1.28499 25.7467L0.463435 27.0463C0.414196 27.096 0.388898 27.1249 0.359889 27.1096" fill="#38E8AD" fill-opacity="0.9"/>
<mask id="mask0_4_15" style="mask-type:alpha" maskUnits="userSpaceOnUse" x="9" y="12" width="9" height="9">
<path fill-rule="evenodd" clip-rule="evenodd" d="M10.7625 12.7697L9.0376 18.785L15.9632 20.7709L17.6881 14.7555L10.7625 12.7697Z" fill="white"/>
</mask>
<g mask="url(#mask0_4_15)">
<path fill-rule="evenodd" clip-rule="evenodd" d="M10.936 14.1215C10.6171 14.0403 10.442 13.6812 10.5959 13.3885C10.6086 13.3648 10.6194 13.3489 10.6284 13.3436C10.7034 13.2987 10.8274 13.2965 10.9997 13.2857C11.1499 13.2766 11.3187 13.2846 11.5007 13.3082C11.997 13.371 12.5203 13.5315 12.5851 13.5439C13.5259 13.7762 14.6816 13.9015 15.7106 14.1887C16.2079 14.328 16.6769 14.5055 17.087 14.7401C17.1652 14.7858 17.2602 14.8538 17.328 14.9334C17.3862 15.001 17.4298 15.077 17.4565 15.1562C17.5168 15.3362 17.498 15.5296 17.3834 15.7159C17.2681 15.9043 16.9523 16.1112 16.8475 16.1869C16.3943 16.5111 15.9611 16.8512 15.5329 17.1911C15.1284 17.5121 14.7391 17.8471 14.3388 18.1719C13.7342 18.6633 13.1224 19.129 12.5312 19.665C12.455 19.7506 12.3243 19.7578 12.2386 19.6816C12.1532 19.6049 12.1465 19.4732 12.2231 19.3877C12.7957 18.5979 13.3597 17.8403 14.031 17.1652C14.6698 16.5223 15.3947 15.9718 16.1395 15.4223C15.9146 15.3247 15.6754 15.2426 15.4283 15.1698C14.4137 14.87 13.2723 14.7257 12.346 14.4792L10.936 14.1215Z" fill="#38E8AD" fill-opacity="0.9"/>
</g>
<path d="M27.2402 4.228L27.3122 2.044H34.1162L34.1762 4.228H33.3482L33.0962 2.68H31.5122C31.5042 3.184 31.4962 3.696 31.4882 4.216C31.4882 4.728 31.4882 5.244 31.4882 5.764V6.28C31.4882 6.784 31.4882 7.292 31.4882 7.804C31.4962 8.308 31.5042 8.812 31.5122 9.316L32.6402 9.436V10H28.7762V9.436L29.9042 9.316C29.9202 8.82 29.9282 8.32 29.9282 7.816C29.9282 7.304 29.9282 6.792 29.9282 6.28V5.764C29.9282 5.252 29.9282 4.74 29.9282 4.228C29.9282 3.708 29.9202 3.192 29.9042 2.68H28.3322L28.0802 4.228H27.2402ZM36.8636 10.168C36.3196 10.168 35.8276 10.048 35.3876 9.808C34.9556 9.568 34.6116 9.22 34.3556 8.764C34.0996 8.308 33.9716 7.764 33.9716 7.132C33.9716 6.492 34.1036 5.944 34.3676 5.488C34.6396 5.032 34.9956 4.684 35.4356 4.444C35.8756 4.204 36.3516 4.084 36.8636 4.084C37.3756 4.084 37.8516 4.204 38.2916 4.444C38.7316 4.684 39.0876 5.032 39.3596 5.488C39.6316 5.936 39.7676 6.484 39.7676 7.132C39.7676 7.772 39.6356 8.32 39.3716 8.776C39.1156 9.224 38.7676 9.568 38.3276 9.808C37.8956 10.048 37.4076 10.168 36.8636 10.168ZM36.8636 9.58C37.2956 9.58 37.6236 9.38 37.8476 8.98C38.0796 8.58 38.1956 7.968 38.1956 7.144C38.1956 5.496 37.7516 4.672 36.8636 4.672C35.9836 4.672 35.5436 5.496 35.5436 7.144C35.5436 7.968 35.6556 8.58 35.8796 8.98C36.1036 9.38 36.4316 9.58 36.8636 9.58ZM43.5902 10.168C43.0462 10.168 42.5542 10.048 42.1142 9.808C41.6822 9.568 41.3382 9.22 41.0822 8.764C40.8262 8.308 40.6982 7.764 40.6982 7.132C40.6982 6.492 40.8302 5.944 41.0942 5.488C41.3662 5.032 41.7222 4.684 42.1622 4.444C42.6022 4.204 43.0782 4.084 43.5902 4.084C44.1022 4.084 44.5782 4.204 45.0182 4.444C45.4582 4.684 45.8142 5.032 46.0862 5.488C46.3582 5.936 46.4942 6.484 46.4942 7.132C46.4942 7.772 46.3622 8.32 46.0982 8.776C45.8422 9.224 45.4942 9.568 45.0542 9.808C44.6222 10.048 44.1342 10.168 43.5902 10.168ZM43.5902 9.58C44.0222 9.58 44.3502 9.38 44.5742 8.98C44.8062 8.58 44.9222 7.968 44.9222 7.144C44.9222 5.496 44.4782 4.672 43.5902 4.672C42.7102 4.672 42.2702 5.496 42.2702 7.144C42.2702 7.968 42.3822 8.58 42.6062 8.98C42.8302 9.38 43.1582 9.58 43.5902 9.58ZM47.1755 10V9.508L47.9915 9.352C47.9995 9.04 48.0035 8.728 48.0035 8.416C48.0115 8.104 48.0155 7.792 48.0155 7.48V2.332L47.1395 2.212V1.744L49.3235 1.204L49.5035 1.312L49.4555 3.004V7.48C49.4555 7.792 49.4555 8.104 49.4555 8.416C49.4635 8.728 49.4715 9.04 49.4795 9.352L50.2955 9.508V10H47.1755ZM30.5762 20.16H30.0362C30.0362 20.752 30.0362 21.312 30.0362 21.84C30.0442 22.36 30.0522 22.872 30.0602 23.376H30.6242C31.9762 23.376 32.6522 22.848 32.6522 21.792C32.6522 21.24 32.4842 20.832 32.1482 20.568C31.8122 20.296 31.2882 20.16 30.5762 20.16ZM30.6962 16.656H30.0602C30.0522 17.168 30.0442 17.676 30.0362 18.18C30.0362 18.684 30.0362 19.148 30.0362 19.572H30.5282C31.1442 19.572 31.5962 19.448 31.8842 19.2C32.1722 18.952 32.3162 18.572 32.3162 18.06C32.3162 17.564 32.1802 17.208 31.9082 16.992C31.6442 16.768 31.2402 16.656 30.6962 16.656ZM27.4682 16.608V16.044H31.1402C32.0602 16.044 32.7402 16.224 33.1802 16.584C33.6202 16.944 33.8402 17.4 33.8402 17.952C33.8402 18.368 33.6962 18.748 33.4082 19.092C33.1202 19.428 32.6162 19.664 31.8962 19.8C32.7442 19.904 33.3522 20.136 33.7202 20.496C34.0882 20.856 34.2722 21.288 34.2722 21.792C34.2722 22.056 34.2122 22.32 34.0922 22.584C33.9802 22.84 33.7922 23.076 33.5282 23.292C33.2722 23.508 32.9202 23.68 32.4722 23.808C32.0322 23.936 31.4802 24 30.8162 24H27.4682V23.436L28.4762 23.328C28.4922 22.824 28.5002 22.316 28.5002 21.804C28.5002 21.292 28.5002 20.776 28.5002 20.256V19.788C28.5002 19.276 28.5002 18.764 28.5002 18.252C28.5002 17.74 28.4922 17.228 28.4762 16.716L27.4682 16.608ZM38.0589 24.168C37.5149 24.168 37.0229 24.048 36.5829 23.808C36.1509 23.568 35.8069 23.22 35.5509 22.764C35.2949 22.308 35.1669 21.764 35.1669 21.132C35.1669 20.492 35.2989 19.944 35.5629 19.488C35.8349 19.032 36.1909 18.684 36.6309 18.444C37.0709 18.204 37.5469 18.084 38.0589 18.084C38.5709 18.084 39.0469 18.204 39.4869 18.444C39.9269 18.684 40.2829 19.032 40.5549 19.488C40.8269 19.936 40.9629 20.484 40.9629 21.132C40.9629 21.772 40.8309 22.32 40.5669 22.776C40.3109 23.224 39.9629 23.568 39.5229 23.808C39.0909 24.048 38.6029 24.168 38.0589 24.168ZM38.0589 23.58C38.4909 23.58 38.8189 23.38 39.0429 22.98C39.2749 22.58 39.3909 21.968 39.3909 21.144C39.3909 19.496 38.9469 18.672 38.0589 18.672C37.1789 18.672 36.7389 19.496 36.7389 21.144C36.7389 21.968 36.8509 22.58 37.0749 22.98C37.2989 23.38 37.6269 23.58 38.0589 23.58ZM44.7855 24.168C44.2415 24.168 43.7495 24.048 43.3095 23.808C42.8775 23.568 42.5335 23.22 42.2775 22.764C42.0215 22.308 41.8935 21.764 41.8935 21.132C41.8935 20.492 42.0255 19.944 42.2895 19.488C42.5615 19.032 42.9175 18.684 43.3575 18.444C43.7975 18.204 44.2735 18.084 44.7855 18.084C45.2975 18.084 45.7735 18.204 46.2135 18.444C46.6535 18.684 47.0095 19.032 47.2815 19.488C47.5535 19.936 47.6895 20.484 47.6895 21.132C47.6895 21.772 47.5575 22.32 47.2935 22.776C47.0375 23.224 46.6895 23.568 46.2495 23.808C45.8175 24.048 45.3295 24.168 44.7855 24.168ZM44.7855 23.58C45.2175 23.58 45.5455 23.38 45.7695 22.98C46.0015 22.58 46.1175 21.968 46.1175 21.144C46.1175 19.496 45.6735 18.672 44.7855 18.672C43.9055 18.672 43.4655 19.496 43.4655 21.144C43.4655 21.968 43.5775 22.58 43.8015 22.98C44.0255 23.38 44.3535 23.58 44.7855 23.58ZM48.3708 24V23.508L49.1868 23.352C49.1948 23.048 49.1988 22.728 49.1988 22.392C49.2068 22.056 49.2108 21.752 49.2108 21.48V16.332L48.3348 16.212V15.744L50.5188 15.204L50.6988 15.312L50.6508 17.004V20.952L52.6428 18.936L51.7428 18.756L51.7548 18.252H54.5868V18.756L53.4948 18.912L52.2828 20.088L54.1308 23.34L54.9108 23.508V24H52.8828L51.2748 21.072L50.6508 21.684C50.6508 21.956 50.6508 22.24 50.6508 22.536C50.6588 22.824 50.6668 23.1 50.6748 23.364L51.4788 23.508V24H48.3708ZM55.31 24V23.508L56.102 23.352C56.11 23.056 56.114 22.736 56.114 22.392C56.114 22.04 56.114 21.736 56.114 21.48V20.916C56.114 20.588 56.11 20.316 56.102 20.1C56.102 19.876 56.094 19.644 56.078 19.404L55.226 19.296V18.84L57.386 18.084L57.578 18.204L57.542 19.896V21.48C57.542 21.736 57.542 22.04 57.542 22.392C57.542 22.736 57.546 23.06 57.554 23.364L58.286 23.508V24H55.31ZM56.822 16.968C56.566 16.968 56.35 16.888 56.174 16.728C55.998 16.568 55.91 16.364 55.91 16.116C55.91 15.86 55.998 15.652 56.174 15.492C56.35 15.332 56.566 15.252 56.822 15.252C57.078 15.252 57.29 15.332 57.458 15.492C57.634 15.652 57.722 15.86 57.722 16.116C57.722 16.364 57.634 16.568 57.458 16.728C57.29 16.888 57.078 16.968 56.822 16.968ZM59.0137 24V23.508L59.7937 23.352C59.8017 23.056 59.8057 22.736 59.8057 22.392C59.8057 22.04 59.8057 21.736 59.8057 21.48V20.844C59.8057 20.516 59.8017 20.256 59.7937 20.064C59.7937 19.864 59.7857 19.644 59.7697 19.404L58.9297 19.296V18.84L60.9337 18.084L61.1257 18.204L61.2097 19.128C61.8257 18.432 62.5057 18.084 63.2497 18.084C63.7697 18.084 64.1697 18.256 64.4497 18.6C64.7377 18.944 64.8817 19.488 64.8817 20.232V21.48C64.8817 21.752 64.8817 22.06 64.8817 22.404C64.8817 22.748 64.8857 23.068 64.8937 23.364L65.6257 23.508V24H62.6617V23.508L63.4297 23.352C63.4377 23.056 63.4417 22.74 63.4417 22.404C63.4417 22.06 63.4417 21.752 63.4417 21.48V20.34C63.4417 19.868 63.3777 19.544 63.2497 19.368C63.1217 19.184 62.9057 19.092 62.6017 19.092C62.1777 19.092 61.7297 19.288 61.2577 19.68V21.48C61.2577 21.744 61.2577 22.048 61.2577 22.392C61.2577 22.736 61.2617 23.06 61.2697 23.364L61.9777 23.508V24H59.0137ZM68.8337 21.456C69.1697 21.456 69.4257 21.324 69.6017 21.06C69.7777 20.796 69.8657 20.444 69.8657 20.004C69.8657 19.58 69.7777 19.244 69.6017 18.996C69.4337 18.74 69.1897 18.612 68.8697 18.612C68.5497 18.612 68.2977 18.744 68.1137 19.008C67.9377 19.264 67.8497 19.608 67.8497 20.04C67.8497 20.472 67.9337 20.816 68.1017 21.072C68.2697 21.328 68.5137 21.456 68.8337 21.456ZM67.3217 25.116C67.3217 25.484 67.4577 25.752 67.7297 25.92C68.0017 26.088 68.3897 26.172 68.8937 26.172C69.5257 26.172 70.0017 26.068 70.3217 25.86C70.6497 25.652 70.8137 25.4 70.8137 25.104C70.8137 24.88 70.7337 24.688 70.5737 24.528C70.4217 24.368 70.1537 24.288 69.7697 24.288H68.4377C68.1417 24.288 67.8777 24.264 67.6457 24.216C67.4297 24.504 67.3217 24.804 67.3217 25.116ZM68.8577 21.984C68.4977 21.984 68.1657 21.94 67.8617 21.852C67.7097 22.06 67.6337 22.28 67.6337 22.512C67.6337 22.664 67.6817 22.784 67.7777 22.872C67.8817 22.96 68.0657 23.004 68.3297 23.004H69.8297C70.6137 23.004 71.1737 23.152 71.5097 23.448C71.8457 23.744 72.0137 24.144 72.0137 24.648C72.0137 25.024 71.8897 25.376 71.6417 25.704C71.4017 26.032 71.0417 26.296 70.5617 26.496C70.0897 26.696 69.4977 26.796 68.7857 26.796C68.1697 26.796 67.6737 26.732 67.2977 26.604C66.9297 26.476 66.6617 26.304 66.4937 26.088C66.3337 25.872 66.2537 25.632 66.2537 25.368C66.2537 25.112 66.3377 24.876 66.5057 24.66C66.6737 24.452 66.9497 24.256 67.3337 24.072C67.0857 23.984 66.9017 23.86 66.7817 23.7C66.6617 23.532 66.6017 23.34 66.6017 23.124C66.6017 22.892 66.6697 22.664 66.8057 22.44C66.9497 22.208 67.1697 21.956 67.4657 21.684C66.8337 21.364 66.5177 20.816 66.5177 20.04C66.5177 19.448 66.7257 18.976 67.1417 18.624C67.5577 18.264 68.1297 18.084 68.8577 18.084C69.5857 18.084 70.1537 18.252 70.5617 18.588L71.9177 18.072L72.0977 18.192V19.032H70.9337C71.1017 19.304 71.1857 19.64 71.1857 20.04C71.1857 20.624 70.9817 21.096 70.5737 21.456C70.1657 21.808 69.5937 21.984 68.8577 21.984Z" fill="#38E8AD" fill-opacity="0.9"/>
</svg>
