<svg width="106" height="65" viewBox="0 0 106 65" fill="none" xmlns="http://www.w3.org/2000/svg">
<path fill-rule="evenodd" clip-rule="evenodd" d="M104.309 7.79871C104.51 7.90335 104.652 8.04229 104.712 8.49374C104.837 9.42569 103.932 11.1391 103.884 11.2658C103.214 12.5785 102.434 13.8327 101.572 15.0351C100.295 16.8181 98.8413 18.4796 97.3614 20.0685C95.7703 21.7446 94.0875 23.3105 92.2694 24.6793C90.4285 26.0644 88.4686 27.2676 86.4185 28.2808C85.1869 28.8887 83.9245 29.4317 82.6247 29.8768C79.6421 30.898 76.5242 31.4755 73.3004 31.6873C73.2054 31.6997 73.119 31.6326 73.1062 31.5372C73.0933 31.4417 73.1601 31.3534 73.2559 31.3405C76.3374 30.7025 79.2298 29.6456 82.0138 28.3447C83.2032 27.7872 84.3693 27.1931 85.5105 26.5483C87.4028 25.4768 89.2084 24.258 90.946 22.9234C92.6653 21.6031 94.3297 20.1869 95.873 18.6188C97.1116 17.3879 98.3254 16.103 99.4545 14.7495C100.573 13.4072 101.609 12.0043 102.476 10.4993L104.103 7.92414C104.201 7.8258 104.251 7.76855 104.309 7.79871Z" fill="#38E8AD" fill-opacity="0.95"/>
<mask id="mask0_3_11" style="mask-type:alpha" maskUnits="userSpaceOnUse" x="69" y="20" width="19" height="17">
<path fill-rule="evenodd" clip-rule="evenodd" d="M83.6952 36.2155L87.113 24.2964L73.3901 20.3614L69.9723 32.2806L83.6952 36.2155Z" fill="white"/>
</mask>
<g mask="url(#mask0_3_11)">
<path fill-rule="evenodd" clip-rule="evenodd" d="M83.3513 33.5369C83.9832 33.6979 84.3303 34.4095 84.0252 34.9894C84.0001 35.0362 83.9787 35.0679 83.9608 35.0784C83.8122 35.1673 83.5665 35.1717 83.2252 35.193C82.9276 35.2112 82.5931 35.1953 82.2324 35.1486C81.249 35.0241 80.2122 34.706 80.0837 34.6815C78.2195 34.2212 75.9297 33.9729 73.8906 33.4038C72.9052 33.1278 71.9759 32.776 71.1633 32.3112C71.0084 32.2206 70.8202 32.0859 70.6858 31.9282C70.5706 31.7942 70.4841 31.6437 70.4312 31.4866C70.3117 31.1301 70.349 30.7469 70.5761 30.3777C70.8044 30.0043 71.4302 29.5945 71.6379 29.4444C72.5359 28.802 73.3943 28.1282 74.2428 27.4547C75.0443 26.8186 75.8155 26.1549 76.6089 25.5112C77.8067 24.5374 79.0191 23.6148 80.1904 22.5527C80.3415 22.3831 80.6004 22.3688 80.7704 22.5198C80.9394 22.6718 80.9528 22.9328 80.8011 23.1022C79.6665 24.667 78.5488 26.1683 77.2187 27.5059C75.953 28.7798 74.5166 29.8707 73.0408 30.9594C73.4864 31.1529 73.9604 31.3155 74.4499 31.4598C76.4605 32.0539 78.7221 32.3397 80.5574 32.8282L83.3513 33.5369Z" fill="#38E8AD" fill-opacity="0.95"/>
</g>
<path d="M1.35609 30.9816L1.46409 27.7056H11.6701L11.7601 30.9816H10.5181L10.1401 28.6596H7.76409C7.75209 29.4156 7.74009 30.1836 7.72809 30.9636C7.72809 31.7316 7.72809 32.5056 7.72809 33.2856V34.0596C7.72809 34.8156 7.72809 35.5776 7.72809 36.3456C7.74009 37.1016 7.75209 37.8576 7.76409 38.6136L9.45609 38.7936V39.6396H3.66009V38.7936L5.35209 38.6136C5.37609 37.8696 5.38809 37.1196 5.38809 36.3636C5.38809 35.5956 5.38809 34.8276 5.38809 34.0596V33.2856C5.38809 32.5176 5.38809 31.7496 5.38809 30.9816C5.38809 30.2016 5.37609 29.4276 5.35209 28.6596H2.99409L2.61609 30.9816H1.35609ZM15.7911 39.8916C14.9751 39.8916 14.2371 39.7116 13.5771 39.3516C12.9291 38.9916 12.4131 38.4696 12.0291 37.7856C11.6451 37.1016 11.4531 36.2856 11.4531 35.3376C11.4531 34.3776 11.6511 33.5556 12.0471 32.8716C12.4551 32.1876 12.9891 31.6656 13.6491 31.3056C14.3091 30.9456 15.0231 30.7656 15.7911 30.7656C16.5591 30.7656 17.2731 30.9456 17.9331 31.3056C18.5931 31.6656 19.1271 32.1876 19.5351 32.8716C19.9431 33.5436 20.1471 34.3656 20.1471 35.3376C20.1471 36.2976 19.9491 37.1196 19.5531 37.8036C19.1691 38.4756 18.6471 38.9916 17.9871 39.3516C17.3391 39.7116 16.6071 39.8916 15.7911 39.8916ZM15.7911 39.0096C16.4391 39.0096 16.9311 38.7096 17.2671 38.1096C17.6151 37.5096 17.7891 36.5916 17.7891 35.3556C17.7891 32.8836 17.1231 31.6476 15.7911 31.6476C14.4711 31.6476 13.8111 32.8836 13.8111 35.3556C13.8111 36.5916 13.9791 37.5096 14.3151 38.1096C14.6511 38.7096 15.1431 39.0096 15.7911 39.0096ZM25.881 39.8916C25.065 39.8916 24.327 39.7116 23.667 39.3516C23.019 38.9916 22.503 38.4696 22.119 37.7856C21.735 37.1016 21.543 36.2856 21.543 35.3376C21.543 34.3776 21.741 33.5556 22.137 32.8716C22.545 32.1876 23.079 31.6656 23.739 31.3056C24.399 30.9456 25.113 30.7656 25.881 30.7656C26.649 30.7656 27.363 30.9456 28.023 31.3056C28.683 31.6656 29.217 32.1876 29.625 32.8716C30.033 33.5436 30.237 34.3656 30.237 35.3376C30.237 36.2976 30.039 37.1196 29.643 37.8036C29.259 38.4756 28.737 38.9916 28.077 39.3516C27.429 39.7116 26.697 39.8916 25.881 39.8916ZM25.881 39.0096C26.529 39.0096 27.021 38.7096 27.357 38.1096C27.705 37.5096 27.879 36.5916 27.879 35.3556C27.879 32.8836 27.213 31.6476 25.881 31.6476C24.561 31.6476 23.901 32.8836 23.901 35.3556C23.901 36.5916 24.069 37.5096 24.405 38.1096C24.741 38.7096 25.233 39.0096 25.881 39.0096ZM31.259 39.6396V38.9016L32.483 38.6676C32.495 38.1996 32.501 37.7316 32.501 37.2636C32.513 36.7956 32.519 36.3276 32.519 35.8596V28.1376L31.205 27.9576V27.2556L34.481 26.4456L34.751 26.6076L34.679 29.1456V35.8596C34.679 36.3276 34.679 36.7956 34.679 37.2636C34.691 37.7316 34.703 38.1996 34.715 38.6676L35.939 38.9016V39.6396H31.259ZM6.36009 53.8796H5.55009C5.55009 54.7676 5.55009 55.6076 5.55009 56.3996C5.56209 57.1796 5.57409 57.9476 5.58609 58.7036H6.43209C8.46009 58.7036 9.47409 57.9116 9.47409 56.3276C9.47409 55.4996 9.22209 54.8876 8.71809 54.4916C8.21409 54.0836 7.42809 53.8796 6.36009 53.8796ZM6.54009 48.6236H5.58609C5.57409 49.3916 5.56209 50.1536 5.55009 50.9096C5.55009 51.6656 5.55009 52.3616 5.55009 52.9976H6.28809C7.21209 52.9976 7.89009 52.8116 8.32209 52.4396C8.75409 52.0676 8.97009 51.4976 8.97009 50.7296C8.97009 49.9856 8.76609 49.4516 8.35809 49.1276C7.96209 48.7916 7.35609 48.6236 6.54009 48.6236ZM1.69809 48.5516V47.7056H7.20609C8.58609 47.7056 9.60609 47.9756 10.2661 48.5156C10.9261 49.0556 11.2561 49.7396 11.2561 50.5676C11.2561 51.1916 11.0401 51.7616 10.6081 52.2776C10.1761 52.7816 9.42009 53.1356 8.34009 53.3396C9.61209 53.4956 10.5241 53.8436 11.0761 54.3836C11.6281 54.9236 11.9041 55.5716 11.9041 56.3276C11.9041 56.7236 11.8141 57.1196 11.6341 57.5156C11.4661 57.8996 11.1841 58.2536 10.7881 58.5776C10.4041 58.9016 9.87609 59.1596 9.20409 59.3516C8.54409 59.5436 7.71609 59.6396 6.72009 59.6396H1.69809V58.7936L3.21009 58.6316C3.23409 57.8756 3.24609 57.1136 3.24609 56.3456C3.24609 55.5776 3.24609 54.8036 3.24609 54.0236V53.3216C3.24609 52.5536 3.24609 51.7856 3.24609 51.0176C3.24609 50.2496 3.23409 49.4816 3.21009 48.7136L1.69809 48.5516ZM17.5841 59.8916C16.7681 59.8916 16.0301 59.7116 15.3701 59.3516C14.7221 58.9916 14.2061 58.4696 13.8221 57.7856C13.4381 57.1016 13.2461 56.2856 13.2461 55.3376C13.2461 54.3776 13.4441 53.5556 13.8401 52.8716C14.2481 52.1876 14.7821 51.6656 15.4421 51.3056C16.1021 50.9456 16.8161 50.7656 17.5841 50.7656C18.3521 50.7656 19.0661 50.9456 19.7261 51.3056C20.3861 51.6656 20.9201 52.1876 21.3281 52.8716C21.7361 53.5436 21.9401 54.3656 21.9401 55.3376C21.9401 56.2976 21.7421 57.1196 21.3461 57.8036C20.9621 58.4756 20.4401 58.9916 19.7801 59.3516C19.1321 59.7116 18.4001 59.8916 17.5841 59.8916ZM17.5841 59.0096C18.2321 59.0096 18.7241 58.7096 19.0601 58.1096C19.4081 57.5096 19.5821 56.5916 19.5821 55.3556C19.5821 52.8836 18.9161 51.6476 17.5841 51.6476C16.2641 51.6476 15.6041 52.8836 15.6041 55.3556C15.6041 56.5916 15.7721 57.5096 16.1081 58.1096C16.4441 58.7096 16.9361 59.0096 17.5841 59.0096ZM27.6739 59.8916C26.8579 59.8916 26.1199 59.7116 25.4599 59.3516C24.8119 58.9916 24.2959 58.4696 23.9119 57.7856C23.5279 57.1016 23.3359 56.2856 23.3359 55.3376C23.3359 54.3776 23.5339 53.5556 23.9299 52.8716C24.3379 52.1876 24.8719 51.6656 25.5319 51.3056C26.1919 50.9456 26.9059 50.7656 27.6739 50.7656C28.4419 50.7656 29.1559 50.9456 29.8159 51.3056C30.4759 51.6656 31.0099 52.1876 31.4179 52.8716C31.8259 53.5436 32.0299 54.3656 32.0299 55.3376C32.0299 56.2976 31.8319 57.1196 31.4359 57.8036C31.0519 58.4756 30.5299 58.9916 29.8699 59.3516C29.2219 59.7116 28.4899 59.8916 27.6739 59.8916ZM27.6739 59.0096C28.3219 59.0096 28.8139 58.7096 29.1499 58.1096C29.4979 57.5096 29.6719 56.5916 29.6719 55.3556C29.6719 52.8836 29.0059 51.6476 27.6739 51.6476C26.3539 51.6476 25.6939 52.8836 25.6939 55.3556C25.6939 56.5916 25.8619 57.5096 26.1979 58.1096C26.5339 58.7096 27.0259 59.0096 27.6739 59.0096ZM33.052 59.6396V58.9016L34.276 58.6676C34.288 58.2116 34.294 57.7316 34.294 57.2276C34.306 56.7236 34.312 56.2676 34.312 55.8596V48.1376L32.998 47.9576V47.2556L36.274 46.4456L36.544 46.6076L36.472 49.1456V55.0676L39.46 52.0436L38.11 51.7736L38.128 51.0176H42.376V51.7736L40.738 52.0076L38.92 53.7716L41.692 58.6496L42.862 58.9016V59.6396H39.82L37.408 55.2476L36.472 56.1656C36.472 56.5736 36.472 56.9996 36.472 57.4436C36.484 57.8756 36.496 58.2896 36.508 58.6856L37.714 58.9016V59.6396H33.052ZM43.4608 59.6396V58.9016L44.6488 58.6676C44.6608 58.2236 44.6668 57.7436 44.6668 57.2276C44.6668 56.6996 44.6668 56.2436 44.6668 55.8596V55.0136C44.6668 54.5216 44.6608 54.1136 44.6488 53.7896C44.6488 53.4536 44.6368 53.1056 44.6128 52.7456L43.3348 52.5836V51.8996L46.5748 50.7656L46.8628 50.9456L46.8088 53.4836V55.8596C46.8088 56.2436 46.8088 56.6996 46.8088 57.2276C46.8088 57.7436 46.8148 58.2296 46.8268 58.6856L47.9248 58.9016V59.6396H43.4608ZM45.7288 49.0916C45.3448 49.0916 45.0208 48.9716 44.7568 48.7316C44.4928 48.4916 44.3608 48.1856 44.3608 47.8136C44.3608 47.4296 44.4928 47.1176 44.7568 46.8776C45.0208 46.6376 45.3448 46.5176 45.7288 46.5176C46.1128 46.5176 46.4308 46.6376 46.6828 46.8776C46.9468 47.1176 47.0788 47.4296 47.0788 47.8136C47.0788 48.1856 46.9468 48.4916 46.6828 48.7316C46.4308 48.9716 46.1128 49.0916 45.7288 49.0916ZM49.0163 59.6396V58.9016L50.1863 58.6676C50.1983 58.2236 50.2043 57.7436 50.2043 57.2276C50.2043 56.6996 50.2043 56.2436 50.2043 55.8596V54.9056C50.2043 54.4136 50.1983 54.0236 50.1863 53.7356C50.1863 53.4356 50.1743 53.1056 50.1503 52.7456L48.8903 52.5836V51.8996L51.8963 50.7656L52.1843 50.9456L52.3103 52.3316C53.2343 51.2876 54.2543 50.7656 55.3703 50.7656C56.1503 50.7656 56.7503 51.0236 57.1703 51.5396C57.6023 52.0556 57.8183 52.8716 57.8183 53.9876V55.8596C57.8183 56.2676 57.8183 56.7296 57.8183 57.2456C57.8183 57.7616 57.8243 58.2416 57.8363 58.6856L58.9343 58.9016V59.6396H54.4883V58.9016L55.6403 58.6676C55.6523 58.2236 55.6583 57.7496 55.6583 57.2456C55.6583 56.7296 55.6583 56.2676 55.6583 55.8596V54.1496C55.6583 53.4416 55.5623 52.9556 55.3703 52.6916C55.1783 52.4156 54.8543 52.2776 54.3983 52.2776C53.7623 52.2776 53.0903 52.5716 52.3823 53.1596V55.8596C52.3823 56.2556 52.3823 56.7116 52.3823 57.2276C52.3823 57.7436 52.3883 58.2296 52.4003 58.6856L53.4623 58.9016V59.6396H49.0163ZM63.7462 55.8236C64.2502 55.8236 64.6342 55.6256 64.8982 55.2296C65.1622 54.8336 65.2942 54.3056 65.2942 53.6456C65.2942 53.0096 65.1622 52.5056 64.8982 52.1336C64.6462 51.7496 64.2802 51.5576 63.8002 51.5576C63.3202 51.5576 62.9422 51.7556 62.6662 52.1516C62.4022 52.5356 62.2702 53.0516 62.2702 53.6996C62.2702 54.3476 62.3962 54.8636 62.6482 55.2476C62.9002 55.6316 63.2662 55.8236 63.7462 55.8236ZM61.4782 61.3136C61.4782 61.8656 61.6822 62.2676 62.0902 62.5196C62.4982 62.7716 63.0802 62.8976 63.8362 62.8976C64.7842 62.8976 65.4982 62.7416 65.9782 62.4296C66.4702 62.1176 66.7162 61.7396 66.7162 61.2956C66.7162 60.9596 66.5962 60.6716 66.3562 60.4316C66.1282 60.1916 65.7262 60.0716 65.1502 60.0716H63.1522C62.7082 60.0716 62.3122 60.0356 61.9642 59.9636C61.6402 60.3956 61.4782 60.8456 61.4782 61.3136ZM63.7822 56.6156C63.2422 56.6156 62.7442 56.5496 62.2882 56.4176C62.0602 56.7296 61.9462 57.0596 61.9462 57.4076C61.9462 57.6356 62.0182 57.8156 62.1622 57.9476C62.3182 58.0796 62.5942 58.1456 62.9902 58.1456H65.2402C66.4162 58.1456 67.2562 58.3676 67.7602 58.8116C68.2642 59.2556 68.5162 59.8556 68.5162 60.6116C68.5162 61.1756 68.3302 61.7036 67.9582 62.1956C67.5982 62.6876 67.0582 63.0836 66.3382 63.3836C65.6302 63.6836 64.7422 63.8336 63.6742 63.8336C62.7502 63.8336 62.0062 63.7376 61.4422 63.5456C60.8902 63.3536 60.4882 63.0956 60.2362 62.7716C59.9962 62.4476 59.8762 62.0876 59.8762 61.6916C59.8762 61.3076 60.0022 60.9536 60.2542 60.6296C60.5062 60.3176 60.9202 60.0236 61.4962 59.7476C61.1242 59.6156 60.8482 59.4296 60.6682 59.1896C60.4882 58.9376 60.3982 58.6496 60.3982 58.3256C60.3982 57.9776 60.5002 57.6356 60.7042 57.2996C60.9202 56.9516 61.2502 56.5736 61.6942 56.1656C60.7462 55.6856 60.2722 54.8636 60.2722 53.6996C60.2722 52.8116 60.5842 52.1036 61.2082 51.5756C61.8322 51.0356 62.6902 50.7656 63.7822 50.7656C64.8742 50.7656 65.7262 51.0176 66.3382 51.5216L68.3722 50.7476L68.6422 50.9276V52.1876H66.8962C67.1482 52.5956 67.2742 53.0996 67.2742 53.6996C67.2742 54.5756 66.9682 55.2836 66.3562 55.8236C65.7442 56.3516 64.8862 56.6156 63.7822 56.6156Z" fill="#38E8AD" fill-opacity="0.95"/>
</svg>
