<svg width="80" height="52" viewBox="0 0 80 52" fill="none" xmlns="http://www.w3.org/2000/svg">
<path fill-rule="evenodd" clip-rule="evenodd" d="M55.4747 1.31079C55.4507 1.19936 55.4022 1.11232 55.1915 1.02349C54.7569 0.839083 53.8071 1.05017 53.7393 1.05693C53.0148 1.2071 52.3039 1.41875 51.6074 1.67654C50.5746 2.05886 49.5772 2.54246 48.6115 3.04851C47.5888 3.59688 46.6074 4.2042 45.7034 4.90322C44.7886 5.61113 43.9461 6.40079 43.1836 7.25926C42.7259 7.77516 42.2955 8.31452 41.9077 8.88497C41.0177 10.194 40.3246 11.6275 39.7947 13.1606C39.776 13.205 39.7971 13.2557 39.8416 13.2746C39.8861 13.2935 39.9378 13.2728 39.9567 13.2282C40.6742 11.8204 41.5695 10.5598 42.5686 9.38396C42.9963 8.88187 43.4386 8.39588 43.9022 7.92873C44.672 7.15435 45.5016 6.44151 46.3784 5.77693C47.2457 5.11935 48.1522 4.50104 49.1162 3.96151C49.8766 3.5249 50.6598 3.10741 51.465 2.74003C52.2633 2.37649 53.0801 2.06061 53.9238 1.84048L55.3868 1.39352C55.4473 1.35931 55.4817 1.34262 55.4747 1.31079" fill="#38E8AD" fill-opacity="0.9"/>
<mask id="mask0_4_22" style="mask-type:alpha" maskUnits="userSpaceOnUse" x="38" y="7" width="8" height="8">
<path fill-rule="evenodd" clip-rule="evenodd" d="M38.9785 7.52512L45.2039 7.45017L45.2902 14.6177L39.0648 14.6927L38.9785 7.52512Z" fill="white"/>
</mask>
<g mask="url(#mask0_4_22)">
<path fill-rule="evenodd" clip-rule="evenodd" d="M40.2301 8.0468C40.2359 7.7194 39.9373 7.45701 39.616 7.52784C39.59 7.53379 39.5719 7.53995 39.5644 7.54724C39.5016 7.60745 39.4669 7.72585 39.4114 7.8883C39.3631 8.03001 39.3264 8.19412 39.3013 8.37498C39.2311 8.86775 39.2477 9.41205 39.2426 9.47752C39.2183 10.4413 39.035 11.5832 39.0403 12.6462C39.0433 13.16 39.0905 13.6567 39.2078 14.1118C39.2312 14.1988 39.2715 14.3079 39.33 14.3939C39.3796 14.4674 39.441 14.5293 39.5101 14.5757C39.6669 14.6808 39.8575 14.7136 40.0664 14.6525C40.2775 14.5915 40.5589 14.3428 40.6591 14.2621C41.0893 13.9124 41.5294 13.586 41.9681 13.2643C42.3824 12.9605 42.8061 12.675 43.223 12.3761C43.8534 11.9251 44.4609 11.4603 45.1306 11.0339C45.2327 10.9832 45.274 10.8597 45.2234 10.7574C45.1722 10.6553 45.0476 10.6143 44.9454 10.6653C44.0372 11.0073 43.1619 11.3495 42.3378 11.8163C41.5531 12.2604 40.8343 12.8114 40.1114 13.3818C40.0768 13.1403 40.0609 12.8892 40.0559 12.633C40.0347 11.5806 40.1961 10.4474 40.2029 9.49381L40.2301 8.0468Z" fill="#38E8AD" fill-opacity="0.9"/>
</g>
<path d="M5.6248 33.3403C4.84081 33.3434 4.13616 33.1822 3.51087 32.8566C2.89354 32.5231 2.40365 32.045 2.04118 31.4224C1.68668 30.7918 1.5077 30.0405 1.50425 29.1686C1.5008 28.2966 1.68183 27.5478 2.04736 26.9224C2.42089 26.2969 2.919 25.8189 3.54169 25.4885C4.17236 25.15 4.86769 24.9792 5.62768 24.9762C6.01968 24.9746 6.41185 25.0171 6.8042 25.1035C7.19654 25.19 7.58514 25.3404 7.96999 25.5549L8.02512 27.3547L7.19713 27.358L6.90324 25.8712C6.72686 25.7758 6.55059 25.7085 6.37443 25.6692C6.19828 25.6299 6.0222 25.6106 5.8462 25.6113C5.3662 25.6132 4.92273 25.747 4.51578 26.0126C4.11679 26.2702 3.79435 26.6635 3.54844 27.1924C3.3105 27.7134 3.19312 28.3739 3.19628 29.1739C3.19942 29.9658 3.31403 30.6254 3.54012 31.1525C3.77418 31.6716 4.08771 32.0583 4.48072 32.3128C4.87373 32.5672 5.31424 32.6935 5.80223 32.6916C6.21023 32.6899 6.62186 32.5963 7.03713 32.4107L7.31933 30.9455L8.13532 30.9423L8.0944 32.7305C7.75117 32.9238 7.37176 33.0734 6.95617 33.179C6.54059 33.2846 6.0968 33.3384 5.6248 33.3403ZM11.888 33.2795C11.344 33.2816 10.8516 33.1636 10.4106 32.9253C9.97768 32.687 9.63231 32.3404 9.37451 31.8854C9.1167 31.4304 8.98655 30.8869 8.98405 30.2549C8.98151 29.615 9.11134 29.0664 9.37353 28.6094C9.64373 28.1523 9.99835 27.8029 10.4374 27.5612C10.8764 27.3194 11.352 27.1975 11.864 27.1955C12.376 27.1935 12.8524 27.3116 13.2934 27.5499C13.7343 27.7881 14.0917 28.1347 14.3655 28.5896C14.6393 29.0365 14.7774 29.584 14.78 30.232C14.7825 30.872 14.6527 31.4205 14.3905 31.8776C14.1363 32.3266 13.7897 32.6719 13.3506 32.9137C12.9196 33.1554 12.432 33.2773 11.888 33.2795ZM11.8857 32.6915C12.3177 32.6898 12.6449 32.4885 12.8673 32.0876C13.0977 31.6867 13.2113 31.0742 13.2081 30.2502C13.2015 28.6022 12.7543 27.78 11.8663 27.7835C10.9863 27.787 10.5496 28.6127 10.5561 30.2607C10.5593 31.0847 10.6738 31.6963 10.8993 32.0954C11.1249 32.4945 11.4537 32.6932 11.8857 32.6915ZM15.639 33.0966L15.6371 32.6046L16.4165 32.4455C16.4233 32.1495 16.426 31.8295 16.4247 31.4855C16.4233 31.1335 16.4221 30.8295 16.4211 30.5735L16.4185 29.9375C16.4172 29.6095 16.4122 29.3495 16.4034 29.1576C16.4027 28.9576 16.3938 28.7376 16.3768 28.4977L15.5364 28.393L15.5346 27.937L17.5356 27.1731L17.7281 27.2923L17.8157 28.216C18.429 27.5175 19.1076 27.1668 19.8516 27.1639C20.3716 27.1618 20.7723 27.3322 21.0536 27.6751C21.343 28.018 21.4891 28.5614 21.4921 29.3054L21.497 30.5534C21.4981 30.8254 21.4993 31.1334 21.5007 31.4774C21.502 31.8214 21.5073 32.1414 21.5165 32.4373L22.249 32.5784L22.251 33.0704L19.287 33.0822L19.2851 32.5902L20.0524 32.4311C20.0593 32.1351 20.062 31.8191 20.0607 31.4831C20.0593 31.1391 20.0581 30.8311 20.057 30.5591L20.0525 29.4191C20.0506 28.9471 19.9854 28.6234 19.8567 28.4479C19.7279 28.2644 19.5116 28.1732 19.2076 28.1745C18.7836 28.1761 18.3364 28.3739 17.8659 28.7678L17.873 30.5678C17.8741 30.8318 17.8753 31.1357 17.8767 31.4797C17.878 31.8237 17.8833 32.1477 17.8925 32.4517L18.6011 32.5929L18.603 33.0849L15.639 33.0966ZM24.9916 33.2276C24.6236 33.229 24.2834 33.1864 23.9711 33.0996C23.6667 33.0208 23.3622 32.898 23.0576 32.7312L23.0401 31.3393L23.8441 31.3361L24.0645 32.4513C24.353 32.5701 24.6652 32.6289 25.0012 32.6275C25.4092 32.6259 25.7129 32.5527 25.9123 32.4079C26.1118 32.2631 26.211 32.0628 26.21 31.8068C26.2091 31.5828 26.1284 31.4031 25.9678 31.2677C25.8072 31.1243 25.5347 30.9894 25.1502 30.8629L24.5494 30.6613C24.1008 30.5191 23.744 30.3085 23.4789 30.0296C23.2218 29.7506 23.0924 29.3991 23.0907 28.9751C23.0894 28.6391 23.1762 28.3347 23.3511 28.062C23.526 27.7813 23.7811 27.5603 24.1165 27.399C24.4598 27.2296 24.8755 27.144 25.3635 27.1421C25.7075 27.1407 26.0196 27.1835 26.3 27.2704C26.5883 27.3492 26.8728 27.4681 27.1534 27.627L27.0984 28.8872L26.3064 28.8904L26.0864 27.8832C25.862 27.7881 25.6138 27.7411 25.3419 27.7422C25.0219 27.7434 24.7741 27.8124 24.5987 27.9491C24.4232 28.0858 24.3359 28.2701 24.3369 28.5021C24.3377 28.7181 24.4104 28.8939 24.5549 29.0293C24.7074 29.1567 24.988 29.2876 25.3965 29.422L25.8771 29.5641C26.4619 29.7617 26.8788 30.0081 27.128 30.3031C27.3772 30.5981 27.5026 30.9536 27.5042 31.3696C27.5064 31.9056 27.2881 32.3505 26.8495 32.7042C26.4189 33.0499 25.7996 33.2244 24.9916 33.2276ZM28.2829 33.0466L28.281 32.5546L29.0723 32.3954C29.0792 32.0994 29.0819 31.7794 29.0805 31.4354C29.0791 31.0834 29.0779 30.7794 29.0769 30.5234L29.0747 29.9594C29.0734 29.6314 29.0683 29.3594 29.0595 29.1435C29.0586 28.9195 29.0497 28.6875 29.0327 28.4476L28.1803 28.3429L28.1785 27.8869L30.3355 27.1224L30.5279 27.2416L30.4986 28.9338L30.5049 30.5177C30.5059 30.7737 30.5071 31.0777 30.5085 31.4297C30.5099 31.7737 30.5152 32.0977 30.5244 32.4017L31.2569 32.5428L31.2589 33.0348L28.2829 33.0466ZM29.7671 26.0086C29.5111 26.0096 29.2947 25.9305 29.1181 25.7712C28.9415 25.6119 28.8527 25.4082 28.8517 25.1602C28.8507 24.9042 28.9378 24.6959 29.1132 24.5352C29.2886 24.3745 29.5043 24.2937 29.7603 24.2926C30.0163 24.2916 30.2286 24.3708 30.3972 24.5301C30.5738 24.6894 30.6627 24.8971 30.6637 25.1531C30.6647 25.4011 30.5775 25.6054 30.4021 25.7661C30.2347 25.9268 30.0231 26.0076 29.7671 26.0086ZM34.0032 33.1919C33.6352 33.1934 33.295 33.1507 32.9827 33.0639C32.6784 32.9852 32.3739 32.8624 32.0692 32.6956L32.0517 31.3036L32.8557 31.3004L33.0761 32.4156C33.3646 32.5344 33.6768 32.5932 34.0128 32.5919C34.4208 32.5903 34.7245 32.517 34.924 32.3723C35.1234 32.2275 35.2226 32.0271 35.2216 31.7711C35.2207 31.5471 35.14 31.3674 34.9795 31.232C34.8189 31.0887 34.5464 30.9537 34.1619 30.8273L33.5611 30.6256C33.1125 30.4834 32.7556 30.2728 32.4905 29.9939C32.2334 29.7149 32.104 29.3634 32.1024 28.9394C32.101 28.6034 32.1878 28.2991 32.3627 28.0264C32.5376 27.7457 32.7928 27.5247 33.1281 27.3633C33.4715 27.194 33.8871 27.1083 34.3751 27.1064C34.7191 27.105 35.0313 27.1478 35.3116 27.2347C35.6 27.3135 35.8844 27.4324 36.1651 27.5913L36.11 28.8515L35.3181 28.8547L35.0981 27.8475C34.8737 27.7524 34.6255 27.7054 34.3535 27.7065C34.0335 27.7077 33.7858 27.7767 33.6103 27.9134C33.4349 28.0501 33.3476 28.2345 33.3485 28.4665C33.3494 28.6825 33.4221 28.8582 33.5666 28.9936C33.7191 29.121 33.9996 29.2519 34.4081 29.3863L34.8887 29.5284C35.4735 29.7261 35.8905 29.9724 36.1397 30.2674C36.3888 30.5624 36.5142 30.9179 36.5159 31.3339C36.518 31.8699 36.2998 32.3148 35.8612 32.6685C35.4305 33.0143 34.8112 33.1887 34.0032 33.1919ZM39.4432 33.1704C38.9632 33.1723 38.5867 33.0538 38.3138 32.8148C38.0408 32.5759 37.9033 32.1925 37.9012 31.6645C37.9005 31.4805 37.8998 31.3085 37.8992 31.1485C37.9065 30.9804 37.9097 30.7804 37.9088 30.5484L37.8987 27.9924L37.0107 27.996L37.0082 27.372L37.9797 27.2481L38.4292 25.6023L39.4012 25.5985L39.3598 27.2547L40.7998 27.249L40.8027 27.9809L39.3507 27.9867L39.3647 31.5267C39.3659 31.8227 39.4227 32.0384 39.5353 32.174C39.6558 32.3095 39.8121 32.3769 40.0041 32.3761C40.2201 32.3753 40.4637 32.2743 40.7349 32.0732L41.0241 32.3721C40.873 32.6207 40.6658 32.8175 40.4024 32.9626C40.1389 33.0996 39.8192 33.1689 39.4432 33.1704ZM44.2552 27.6433C44.0632 27.644 43.8715 27.7088 43.68 27.8376C43.4964 27.9583 43.3372 28.1589 43.2023 28.4394C43.0755 28.72 42.997 29.1003 42.9669 29.5804L44.6108 29.5739C44.8988 29.5727 45.0906 29.512 45.1861 29.3916C45.2817 29.2712 45.329 29.103 45.3281 28.887C45.3267 28.519 45.2215 28.2195 45.0126 27.9883C44.8037 27.7571 44.5512 27.6421 44.2552 27.6433ZM44.277 33.1512C43.717 33.1534 43.2245 33.0354 42.7996 32.7971C42.3746 32.5588 42.0413 32.2161 41.7995 31.769C41.5577 31.314 41.4356 30.7745 41.4331 30.1505C41.4306 29.5105 41.5644 28.9619 41.8346 28.5049C42.1128 28.0398 42.4714 27.6863 42.9104 27.4446C43.3574 27.1948 43.8329 27.0689 44.3369 27.0669C44.8089 27.0651 45.2213 27.1634 45.5741 27.3621C45.9269 27.5607 46.2 27.8396 46.3934 28.1988C46.5948 28.558 46.6965 28.9816 46.6985 29.4696C46.6995 29.7256 46.6763 29.9457 46.6291 30.1299L42.9571 30.1444C42.9918 30.8323 43.1739 31.3476 43.5032 31.6903C43.8406 32.033 44.2613 32.2033 44.7653 32.2013C45.1172 32.1999 45.413 32.1307 45.6524 31.9938C45.8999 31.8488 46.1231 31.6639 46.3222 31.4391L46.6715 31.7497C46.4412 32.1907 46.1226 32.5359 45.7156 32.7855C45.3165 33.0271 44.837 33.149 44.277 33.1512ZM47.5841 32.9701L47.5822 32.4781L48.3615 32.3191C48.3684 32.023 48.3711 31.703 48.3697 31.359C48.3683 31.007 48.3671 30.703 48.3661 30.447L48.3636 29.811C48.3623 29.483 48.3573 29.223 48.3485 29.0311C48.3477 28.8311 48.3388 28.6111 48.3219 28.3712L47.4815 28.2665L47.4797 27.8105L49.4807 27.0466L49.6731 27.1658L49.7608 28.0895C50.374 27.391 51.0526 27.0404 51.7966 27.0374C52.3166 27.0354 52.7173 27.2058 52.9987 27.5487C53.288 27.8915 53.4342 28.4349 53.4371 29.1789L53.4421 30.4269C53.4432 30.6989 53.4444 31.0069 53.4457 31.3509C53.4471 31.6949 53.4524 32.0149 53.4615 32.3109L54.1941 32.452L54.196 32.944L51.2321 32.9557L51.2301 32.4637L51.9975 32.3047C52.0043 32.0086 52.0071 31.6926 52.0057 31.3566C52.0044 31.0126 52.0032 30.7046 52.0021 30.4326L51.9976 29.2926C51.9957 28.8206 51.9304 28.4969 51.8017 28.3214C51.673 28.1379 51.4566 28.0468 51.1526 28.048C50.7286 28.0496 50.2814 28.2474 49.811 28.6413L49.8181 30.4413C49.8191 30.7053 49.8204 31.0093 49.8217 31.3533C49.8231 31.6973 49.8284 32.0212 49.8376 32.3252L50.5461 32.4664L50.5481 32.9584L47.5841 32.9701ZM56.986 33.1009C56.506 33.1028 56.1296 32.9843 55.8566 32.7454C55.5837 32.5065 55.4461 32.123 55.4441 31.595C55.4433 31.411 55.4426 31.239 55.442 31.079C55.4494 30.911 55.4526 30.711 55.4516 30.479L55.4415 27.923L54.5535 27.9265L54.5511 27.3025L55.5226 27.1787L55.9721 25.5329L56.9441 25.529L56.9026 27.1852L58.3426 27.1795L58.3455 27.9115L56.8935 27.9172L56.9075 31.4572C56.9087 31.7532 56.9656 31.969 57.0781 32.1045C57.1986 32.2401 57.3549 32.3074 57.5469 32.3067C57.7629 32.3058 58.0065 32.2049 58.2777 32.0038L58.5669 32.3026C58.4159 32.5512 58.2086 32.7481 57.9452 32.8931C57.6818 33.0302 57.362 33.0994 56.986 33.1009ZM6.06399 47.2786C5.74399 47.2799 5.48368 47.2009 5.28305 47.0417C5.08241 46.8825 4.94554 46.6631 4.87244 46.3834C4.57764 46.6885 4.31056 46.9216 4.0712 47.0825C3.8318 47.2355 3.5201 47.3127 3.13611 47.3142C2.68811 47.316 2.30761 47.1895 1.9946 46.9348C1.68955 46.672 1.53607 46.2966 1.53413 45.8086C1.53312 45.5526 1.59219 45.3163 1.71133 45.0999C1.83044 44.8754 2.04162 44.6665 2.34485 44.4733C2.65609 44.2801 3.09934 44.0904 3.67461 43.9041C3.83439 43.8474 4.01416 43.7907 4.21394 43.7339C4.41372 43.6771 4.61749 43.6203 4.82527 43.5635L4.82394 43.2275C4.82172 42.6675 4.74024 42.2918 4.57948 42.1005C4.42669 41.9011 4.15429 41.8022 3.76229 41.8037C3.6903 41.804 3.61031 41.8083 3.52234 41.8167C3.44238 41.825 3.35842 41.8373 3.27049 41.8537L3.1291 42.5142C3.09824 42.8023 3.01508 43.0147 2.87962 43.1512C2.74416 43.2878 2.57643 43.3564 2.37643 43.3572C1.99244 43.3587 1.76773 43.1796 1.7023 42.8199C1.7724 42.3396 2.02688 41.9546 2.46573 41.6648C2.91259 41.3751 3.50002 41.2287 4.22801 41.2259C4.924 41.2231 5.43267 41.3891 5.75399 41.7238C6.07529 42.0506 6.23749 42.6059 6.24059 43.3899L6.25095 46.0059C6.25238 46.3659 6.36909 46.5454 6.60109 46.5445C6.75309 46.5439 6.89274 46.4554 7.02004 46.2788L7.29699 46.5178C7.15406 46.7903 6.98284 46.987 6.78332 47.1078C6.59176 47.2206 6.35199 47.2775 6.06399 47.2786ZM2.93712 45.551C2.93836 45.863 3.01926 46.0907 3.17983 46.2341C3.34837 46.3694 3.55264 46.4366 3.79263 46.4356C3.92863 46.4351 4.06451 46.4026 4.20025 46.338C4.336 46.2735 4.54747 46.1406 4.83468 45.9395L4.82717 44.0435C4.65939 44.1002 4.4996 44.1528 4.34779 44.2014C4.20398 44.25 4.08016 44.2945 3.97632 44.3349C3.57695 44.4965 3.30169 44.6816 3.15051 44.8902C3.00733 45.0987 2.93621 45.319 2.93712 45.551ZM10.5824 47.2848C10.0384 47.2869 9.54997 47.1728 9.11706 46.9426C8.68411 46.7043 8.34275 46.3616 8.09298 45.9146C7.85118 45.4596 7.72901 44.912 7.72647 44.272C7.72391 43.624 7.85772 43.0715 8.12791 42.6144C8.40611 42.1573 8.77273 41.8079 9.22777 41.5661C9.68282 41.3243 10.1783 41.2023 10.7143 41.2002C11.1063 41.1986 11.4586 41.2732 11.7712 41.424C12.0918 41.5667 12.3486 41.7617 12.5416 42.009C12.7425 42.2562 12.8636 42.5357 12.9049 42.8475C12.8103 43.1999 12.583 43.3768 12.223 43.3782C11.775 43.38 11.5139 43.101 11.4397 42.5413L11.2808 41.8219C11.2087 41.8062 11.1367 41.7945 11.0647 41.7868C10.9926 41.7791 10.9206 41.7754 10.8486 41.7757C10.5606 41.7768 10.293 41.8619 10.0456 42.0308C9.80625 42.1918 9.61125 42.4446 9.46062 42.7892C9.30998 43.1338 9.23571 43.5701 9.2378 44.098C9.24068 44.826 9.40688 45.3814 9.7364 45.7641C10.0739 46.1468 10.5107 46.337 11.0467 46.3349C11.3667 46.3336 11.6544 46.2605 11.9098 46.1155C12.1652 45.9705 12.3805 45.7736 12.5555 45.5249L12.9165 45.7875C12.7184 46.2763 12.4199 46.6495 12.0209 46.9071C11.6299 47.1566 11.1504 47.2825 10.5824 47.2848ZM13.7377 47.1043L13.7358 46.6123L14.5032 46.4652C14.51 46.1612 14.5127 45.8372 14.5114 45.4932C14.51 45.1412 14.5088 44.8372 14.5078 44.5812L14.5052 43.9452C14.5039 43.6172 14.4989 43.3572 14.4901 43.1652C14.4894 42.9652 14.4805 42.7453 14.4635 42.5053L13.6231 42.4007L13.6213 41.9447L15.6223 41.1807L15.8148 41.3L15.9404 42.7155C16.1224 42.2188 16.3689 41.8378 16.6799 41.5726C16.9908 41.3073 17.3023 41.1741 17.6143 41.1729C17.8303 41.172 18.0265 41.2272 18.2029 41.3385C18.3874 41.4498 18.508 41.6093 18.5648 41.8171C18.558 42.1131 18.4869 42.3454 18.3516 42.514C18.2162 42.6745 18.0285 42.7552 17.7886 42.7562C17.5006 42.7573 17.228 42.6144 16.9708 42.3274L16.8624 42.2078C16.4398 42.5615 16.1377 43.0587 15.9563 43.6994L15.9597 44.5754C15.9607 44.8234 15.9619 45.1194 15.9633 45.4634C15.9646 45.7994 15.9698 46.1154 15.979 46.4114L16.9638 46.5995L16.9657 47.0915L13.7377 47.1043ZM21.8106 47.2403C21.2666 47.2424 20.7741 47.1244 20.3332 46.8861C19.9002 46.6479 19.5549 46.3012 19.297 45.8462C19.0392 45.3913 18.9091 44.8478 18.9066 44.2158C18.9041 43.5758 19.0339 43.0273 19.2961 42.5702C19.5663 42.1131 19.9209 41.7637 20.3599 41.522C20.799 41.2803 21.2745 41.1584 21.7865 41.1563C22.2985 41.1543 22.775 41.2724 23.2159 41.5107C23.6569 41.7489 24.0142 42.0955 24.288 42.5504C24.5618 42.9974 24.7 43.5448 24.7025 44.1928C24.7051 44.8328 24.5752 45.3813 24.3131 45.8384C24.0588 46.2874 23.7122 46.6328 23.2731 46.8745C22.8421 47.1162 22.3546 47.2381 21.8106 47.2403ZM21.8083 46.6523C22.2403 46.6506 22.5675 46.4493 22.7899 46.0484C23.0203 45.6475 23.1339 45.035 23.1306 44.211C23.1241 42.5631 22.6768 41.7408 21.7888 41.7443C20.9088 41.7478 20.4721 42.5736 20.4786 44.2215C20.4819 45.0455 20.5963 45.6571 20.8219 46.0562C21.0475 46.4553 21.3763 46.654 21.8083 46.6523ZM27.5782 47.2175C27.2102 47.2189 26.8701 47.1763 26.5577 47.0895C26.2534 47.0107 25.9489 46.8879 25.6442 46.7211L25.6267 45.3292L26.4307 45.326L26.6511 46.4411C26.9396 46.56 27.2519 46.6187 27.5879 46.6174C27.9958 46.6158 28.2996 46.5426 28.499 46.3978C28.6984 46.253 28.7976 46.0526 28.7966 45.7966C28.7957 45.5726 28.715 45.3929 28.5545 45.2576C28.3939 45.1142 28.1214 44.9793 27.7369 44.8528L27.1361 44.6512C26.6875 44.509 26.3307 44.2984 26.0656 44.0194C25.8084 43.7404 25.6791 43.3889 25.6774 42.965C25.676 42.629 25.7628 42.3246 25.9378 42.0519C26.1127 41.7712 26.3678 41.5502 26.7031 41.3889C27.0465 41.2195 27.4621 41.1339 27.9501 41.1319C28.2941 41.1306 28.6063 41.1733 28.8867 41.2602C29.175 41.3391 29.4594 41.458 29.7401 41.6169L29.6851 42.8771L28.8931 42.8802L28.6731 41.8731C28.4487 41.778 28.2005 41.731 27.9285 41.732C27.6085 41.7333 27.3608 41.8023 27.1853 41.939C27.0099 42.0757 26.9226 42.26 26.9235 42.492C26.9244 42.708 26.9971 42.8837 27.1416 43.0192C27.2941 43.1466 27.5746 43.2774 27.9832 43.4118L28.4637 43.5539C29.0485 43.7516 29.4655 43.998 29.7147 44.293C29.9638 44.588 30.0892 44.9435 30.0909 45.3595C30.093 45.8955 29.8748 46.3404 29.4362 46.6941C29.0055 47.0398 28.3862 47.2143 27.5782 47.2175ZM32.9102 47.1963C32.5422 47.1978 32.202 47.1551 31.8897 47.0684C31.5854 46.9896 31.2809 46.8668 30.9762 46.7L30.9587 45.3081L31.7627 45.3049L31.9831 46.42C32.2716 46.5389 32.5838 46.5976 32.9198 46.5963C33.3278 46.5947 33.6316 46.5215 33.831 46.3767C34.0304 46.2319 34.1296 46.0315 34.1286 45.7755C34.1277 45.5515 34.047 45.3718 33.8865 45.2365C33.7259 45.0931 33.4534 44.9582 33.0689 44.8317L32.4681 44.6301C32.0195 44.4879 31.6626 44.2773 31.3975 43.9983C31.1404 43.7193 31.011 43.3678 31.0094 42.9438C31.008 42.6078 31.0948 42.3035 31.2698 42.0308C31.4446 41.7501 31.6998 41.5291 32.0351 41.3678C32.3785 41.1984 32.7941 41.1128 33.2821 41.1108C33.6261 41.1095 33.9383 41.1522 34.2186 41.2391C34.507 41.318 34.7914 41.4369 35.0721 41.5957L35.017 42.856L34.2251 42.8591L34.0051 41.852C33.7807 41.7569 33.5325 41.7098 33.2605 41.7109C32.9405 41.7122 32.6928 41.7812 32.5173 41.9179C32.3419 42.0546 32.2546 42.2389 32.2555 42.4709C32.2564 42.6869 32.3291 42.8626 32.4736 42.998C32.6261 43.1254 32.9066 43.2563 33.3152 43.3907L33.7957 43.5328C34.3805 43.7305 34.7975 43.9768 35.0467 44.2719C35.2958 44.5669 35.4212 44.9224 35.4229 45.3384C35.425 45.8744 35.2068 46.3192 34.7682 46.673C34.3375 47.0187 33.7182 47.1931 32.9102 47.1963ZM40.4699 44.1544C40.4727 44.8824 40.6109 45.4258 40.8843 45.7848C41.1657 46.1357 41.5184 46.3103 41.9424 46.3086C42.1504 46.3078 42.3382 46.267 42.5059 46.1863C42.6816 46.0976 42.8451 45.973 42.9964 45.8124L42.9828 42.3684C42.6296 42.0658 42.281 41.9152 41.937 41.9166C41.537 41.9181 41.1897 42.0995 40.8952 42.4607C40.6086 42.8218 40.4668 43.3864 40.4699 44.1544ZM43.1456 47.1198L43.0466 46.3642C42.8236 46.6211 42.5764 46.8181 42.305 46.9551C42.0335 47.0922 41.7218 47.1615 41.3698 47.1629C40.8978 47.1647 40.4773 47.0464 40.1084 46.8078C39.7474 46.5693 39.4621 46.2264 39.2523 45.7792C39.0425 45.3321 38.9364 44.8005 38.934 44.1845C38.9315 43.5525 39.0453 43.004 39.2755 42.5391C39.5136 42.0742 39.8282 41.7169 40.2192 41.4674C40.6182 41.2098 41.0537 41.0801 41.5257 41.0782C41.8297 41.077 42.1019 41.1319 42.3423 41.243C42.5908 41.354 42.8235 41.5371 43.0405 41.7922L43.0307 39.3202L42.0943 39.2039L42.0924 38.7359L44.2863 38.1872L44.4667 38.2945L44.4254 39.9867L44.4506 46.3586L45.2311 46.4876L45.2331 46.9796L43.1456 47.1198ZM48.7168 41.6257C48.5248 41.6265 48.3331 41.6912 48.1416 41.82C47.9581 41.9407 47.7989 42.1414 47.664 42.4219C47.5371 42.7024 47.4586 43.0827 47.4285 43.5628L49.0725 43.5563C49.3605 43.5552 49.5523 43.4944 49.6478 43.374C49.7433 43.2537 49.7906 43.0855 49.7898 42.8695C49.7883 42.5015 49.6831 42.2019 49.4742 41.9707C49.2653 41.7395 49.0128 41.6245 48.7168 41.6257ZM48.7387 47.1337C48.1787 47.1359 47.6862 47.0178 47.2612 46.7795C46.8363 46.5412 46.5029 46.1985 46.2612 45.7515C46.0194 45.2964 45.8972 44.7569 45.8948 44.1329C45.8922 43.4929 46.026 42.9444 46.2962 42.4873C46.5744 42.0222 46.933 41.6688 47.3721 41.427C47.8191 41.1773 48.2946 41.0514 48.7986 41.0494C49.2706 41.0475 49.683 41.1459 50.0357 41.3445C50.3885 41.5431 50.6616 41.822 50.8551 42.1813C51.0565 42.5405 51.1582 42.9641 51.1601 43.4521C51.1611 43.7081 51.138 43.9282 51.0907 44.1123L47.4187 44.1269C47.4535 44.8147 47.6355 45.33 47.9649 45.6727C48.3022 46.0154 48.7229 46.1857 49.2269 46.1837C49.5789 46.1823 49.8746 46.1132 50.1141 45.9762C50.3615 45.8312 50.5848 45.6464 50.7839 45.4216L51.1331 45.7322C50.9029 46.1731 50.5842 46.5184 50.1772 46.768C49.7782 47.0096 49.2987 47.1315 48.7387 47.1337ZM55.3626 41.6954L55.3606 41.1914L57.6406 41.1824L57.6426 41.6864L56.9712 41.833L55.0236 46.9888L54.3156 46.9916L52.1231 41.8162L51.4987 41.7107L51.4967 41.2067L54.6527 41.1942L54.6546 41.6982L53.7312 41.8459L55.065 45.3206L56.2393 41.8479L55.3626 41.6954ZM58.1389 46.9285L58.1369 46.4365L58.9283 46.2773C58.9351 45.9813 58.9379 45.6613 58.9365 45.3173C58.9351 44.9653 58.9339 44.6613 58.9329 44.4053L58.9307 43.8413C58.9294 43.5133 58.9243 43.2413 58.9154 43.0253C58.9146 42.8014 58.9056 42.5694 58.8887 42.3294L58.0363 42.2248L58.0345 41.7688L60.1914 41.0043L60.3839 41.1235L60.3546 42.8156L60.3609 44.3996C60.3619 44.6556 60.3631 44.9596 60.3645 45.3116C60.3659 45.6556 60.3711 45.9796 60.3803 46.2836L61.1129 46.4247L61.1149 46.9167L58.1389 46.9285ZM59.623 39.8905C59.367 39.8915 59.1507 39.8124 58.9741 39.6531C58.7975 39.4938 58.7086 39.2901 58.7077 39.0421C58.7067 38.7861 58.7938 38.5778 58.9692 38.4171C59.1446 38.2564 59.3602 38.1755 59.6162 38.1745C59.8722 38.1735 60.0845 38.2527 60.2532 38.412C60.4298 38.5713 60.5186 38.779 60.5197 39.035C60.5206 39.283 60.4334 39.4873 60.2581 39.648C60.0907 39.8087 59.879 39.8895 59.623 39.8905ZM64.6992 47.0705C64.1552 47.0726 63.6667 46.9586 63.2338 46.7283C62.8009 46.49 62.4595 46.1473 62.2097 45.7003C61.9679 45.2453 61.8458 44.6978 61.8432 44.0578C61.8407 43.4098 61.9745 42.8572 62.2447 42.4002C62.5229 41.9431 62.8895 41.5936 63.3445 41.3518C63.7996 41.11 64.2951 40.988 64.8311 40.9859C65.2231 40.9844 65.5754 41.059 65.888 41.2097C66.2086 41.3525 66.4653 41.5474 66.6583 41.7947C66.8593 42.0419 66.9804 42.3214 67.0216 42.6333C66.927 42.9856 66.6997 43.1625 66.3397 43.164C65.8917 43.1657 65.6306 42.8868 65.5564 42.327L65.3976 41.6077C65.3255 41.592 65.2535 41.5802 65.1814 41.5725C65.1094 41.5648 65.0374 41.5611 64.9654 41.5614C64.6774 41.5625 64.4097 41.6476 64.1624 41.8166C63.923 41.9775 63.728 42.2303 63.5774 42.5749C63.4267 42.9195 63.3525 43.3558 63.3546 43.8838C63.3574 44.6118 63.5236 45.1671 63.8532 45.5498C64.1907 45.9325 64.6274 46.1228 65.1634 46.1206C65.4834 46.1194 65.7711 46.0462 66.0266 45.9012C66.282 45.7562 66.4972 45.5594 66.6722 45.3107L67.0333 45.5732C66.8352 46.062 66.5367 46.4352 66.1377 46.6928C65.7467 46.9423 65.2672 47.0682 64.6992 47.0705ZM70.6425 41.5389C70.4505 41.5397 70.2587 41.6044 70.0672 41.7332C69.8837 41.8539 69.7245 42.0545 69.5896 42.3351C69.4627 42.6156 69.3842 42.9959 69.3541 43.476L70.9981 43.4695C71.2861 43.4684 71.4779 43.4076 71.5734 43.2872C71.6689 43.1669 71.7162 42.9987 71.7154 42.7827C71.7139 42.4147 71.6087 42.1151 71.3998 41.8839C71.1909 41.6527 70.9385 41.5377 70.6425 41.5389ZM70.6643 47.0469C70.1043 47.0491 69.6118 46.931 69.1869 46.6927C68.7619 46.4544 68.4285 46.1117 68.1868 45.6647C67.945 45.2096 67.8228 44.6701 67.8204 44.0461C67.8178 43.4061 67.9517 42.8576 68.2218 42.4005C68.5 41.9354 68.8586 41.582 69.2977 41.3402C69.7447 41.0905 70.2202 40.9646 70.7242 40.9626C71.1962 40.9607 71.6086 41.0591 71.9614 41.2577C72.3141 41.4563 72.5872 41.7352 72.7807 42.0944C72.9821 42.4536 73.0838 42.8773 73.0857 43.3652C73.0867 43.6212 73.0636 43.8413 73.0163 44.0255L69.3443 44.0401C69.3791 44.7279 69.5611 45.2432 69.8905 45.5859C70.2278 45.9286 70.6485 46.0989 71.1525 46.0969C71.5045 46.0955 71.8002 46.0264 72.0397 45.8894C72.2871 45.7444 72.5104 45.5595 72.7095 45.3348L73.0587 45.6454C72.8285 46.0863 72.5098 46.4316 72.1028 46.6812C71.7038 46.9227 71.2243 47.0446 70.6643 47.0469ZM75.988 47.0258C75.62 47.0272 75.2798 46.9846 74.9675 46.8978C74.6632 46.819 74.3587 46.6962 74.054 46.5294L74.0365 45.1375L74.8405 45.1343L75.0609 46.2494C75.3494 46.3683 75.6616 46.4271 75.9976 46.4257C76.4056 46.4241 76.7093 46.3509 76.9088 46.2061C77.1082 46.0613 77.2074 45.8609 77.2064 45.6049C77.2055 45.381 77.1248 45.2013 76.9643 45.0659C76.8037 44.9225 76.5311 44.7876 76.1466 44.6611L75.5458 44.4595C75.0973 44.3173 74.7404 44.1067 74.4753 43.8277C74.2182 43.5488 74.0888 43.1973 74.0872 42.7733C74.0858 42.4373 74.1726 42.1329 74.3475 41.8602C74.5224 41.5795 74.7776 41.3585 75.1129 41.1972C75.4563 41.0278 75.8719 40.9422 76.3599 40.9403C76.7039 40.9389 77.0161 40.9817 77.2964 41.0686C77.5847 41.1474 77.8692 41.2663 78.1498 41.4252L78.0948 42.6854L77.3028 42.6885L77.0829 41.6814C76.8585 41.5863 76.6103 41.5393 76.3383 41.5404C76.0183 41.5416 75.7706 41.6106 75.5951 41.7473C75.4196 41.884 75.3324 42.0683 75.3333 42.3003C75.3341 42.5163 75.4068 42.6921 75.5514 42.8275C75.7039 42.9549 75.9844 43.0858 76.3929 43.2202L76.8735 43.3622C77.4583 43.5599 77.8753 43.8063 78.1244 44.1013C78.3736 44.3963 78.499 44.7518 78.5007 45.1678C78.5028 45.7038 78.2845 46.1487 77.8459 46.5024C77.4153 46.8481 76.796 47.0226 75.988 47.0258Z" fill="#38E8AD" fill-opacity="0.9"/>
</svg>
