<svg width="138" height="79" viewBox="0 0 138 79" fill="none" xmlns="http://www.w3.org/2000/svg">
<path fill-rule="evenodd" clip-rule="evenodd" d="M0.0661854 3.61463C0.0916875 3.38907 0.170628 3.207 0.570645 2.98934C1.39567 2.53807 3.31954 2.76886 3.45525 2.76888C4.92071 2.92342 6.37132 3.2025 7.80252 3.57586C9.92491 4.1296 11.997 4.89104 14.0107 5.70326C16.1457 6.58807 18.2106 7.59787 20.14 8.80468C22.0929 10.027 23.9185 11.4255 25.5991 12.9763C26.608 13.9083 27.5673 14.8922 28.4487 15.9461C30.4709 18.3647 32.1274 21.0686 33.4804 24.0024C33.5261 24.0866 33.4944 24.1913 33.4099 24.2375C33.3253 24.2837 33.219 24.2529 33.1726 24.1682C31.4727 21.52 29.4494 19.1985 27.2373 17.0655C26.2906 16.155 25.318 15.2792 24.307 14.4449C22.6286 13.0623 20.8437 11.8134 18.975 10.6695C17.1262 9.53753 15.2077 8.49116 13.1907 7.61229C11.5976 6.89714 9.96305 6.22441 8.29482 5.65534C6.64096 5.09252 4.95988 4.62779 3.24434 4.35813L0.256813 3.76122C0.130042 3.70538 0.0586319 3.6791 0.0661854 3.61463" fill="#38E8AD" fill-opacity="0.95"/>
<mask id="mask0_4_8" style="mask-type:alpha" maskUnits="userSpaceOnUse" x="21" y="12" width="15" height="16">
<path fill-rule="evenodd" clip-rule="evenodd" d="M33.9843 12.6754L21.6319 13.7561L22.8761 27.9777L35.2285 26.897L33.9843 12.6754Z" fill="white"/>
</mask>
<g mask="url(#mask0_4_8)">
<path fill-rule="evenodd" clip-rule="evenodd" d="M31.6068 13.9564C31.5306 13.3087 32.0705 12.7297 32.7213 12.8067C32.774 12.8133 32.8112 12.822 32.8274 12.8349C32.9637 12.9419 33.0558 13.1696 33.198 13.4806C33.3217 13.7519 33.4268 14.0699 33.5123 14.4234C33.7486 15.3861 33.8232 16.4681 33.8464 16.5968C34.0847 18.502 34.6734 20.7288 34.8729 22.8364C34.9683 23.8553 34.9729 24.8489 34.8302 25.7741C34.8011 25.9512 34.7428 26.1752 34.6437 26.3572C34.56 26.5128 34.4505 26.6474 34.3228 26.7531C34.0327 26.9924 33.6616 27.0949 33.2355 27.0152C32.8052 26.9359 32.1983 26.4985 31.9837 26.3584C31.0623 25.7503 30.1255 25.1904 29.1927 24.6396C28.3116 24.1193 27.4156 23.6371 26.5303 23.1272C25.192 22.3578 23.8962 21.5566 22.4849 20.8437C22.2724 20.7635 22.1663 20.5269 22.2463 20.3141C22.3276 20.1018 22.5665 19.9958 22.779 20.0767C24.6465 20.5752 26.4487 21.0806 28.174 21.843C29.8169 22.5681 31.3501 23.5181 32.8954 24.5058C32.9164 24.0204 32.8983 23.5197 32.8576 23.0109C32.6917 20.921 32.1481 18.7071 31.9464 16.8187L31.6068 13.9564Z" fill="#38E8AD" fill-opacity="0.95"/>
</g>
<path d="M20.0095 53.6927C18.8335 53.6927 17.7775 53.4467 16.8415 52.9547C15.9175 52.4507 15.1855 51.7307 14.6455 50.7947C14.1175 49.8467 13.8535 48.7187 13.8535 47.4107C13.8535 46.1027 14.1295 44.9807 14.6815 44.0447C15.2455 43.1087 15.9955 42.3947 16.9315 41.9027C17.8795 41.3987 18.9235 41.1467 20.0635 41.1467C20.6515 41.1467 21.2395 41.2127 21.8275 41.3447C22.4155 41.4767 22.9975 41.7047 23.5735 42.0287L23.6455 44.7287H22.4035L21.9715 42.4967C21.7075 42.3527 21.4435 42.2507 21.1795 42.1907C20.9155 42.1307 20.6515 42.1007 20.3875 42.1007C19.6675 42.1007 19.0015 42.2987 18.3895 42.6947C17.7895 43.0787 17.3035 43.6667 16.9315 44.4587C16.5715 45.2387 16.3915 46.2287 16.3915 47.4287C16.3915 48.6167 16.5595 49.6067 16.8955 50.3987C17.2435 51.1787 17.7115 51.7607 18.2995 52.1447C18.8875 52.5287 19.5475 52.7207 20.2795 52.7207C20.8915 52.7207 21.5095 52.5827 22.1335 52.3067L22.5655 50.1107H23.7895L23.7175 52.7927C23.2015 53.0807 22.6315 53.3027 22.0075 53.4587C21.3835 53.6147 20.7175 53.6927 20.0095 53.6927ZM29.4047 53.6387C28.5887 53.6387 27.8507 53.4587 27.1907 53.0987C26.5427 52.7387 26.0267 52.2167 25.6427 51.5327C25.2587 50.8487 25.0667 50.0327 25.0667 49.0847C25.0667 48.1247 25.2647 47.3027 25.6607 46.6187C26.0687 45.9347 26.6027 45.4127 27.2627 45.0527C27.9227 44.6927 28.6367 44.5127 29.4047 44.5127C30.1727 44.5127 30.8867 44.6927 31.5467 45.0527C32.2067 45.4127 32.7407 45.9347 33.1487 46.6187C33.5567 47.2907 33.7607 48.1127 33.7607 49.0847C33.7607 50.0447 33.5627 50.8667 33.1667 51.5507C32.7827 52.2227 32.2607 52.7387 31.6007 53.0987C30.9527 53.4587 30.2207 53.6387 29.4047 53.6387ZM29.4047 52.7567C30.0527 52.7567 30.5447 52.4567 30.8807 51.8567C31.2287 51.2567 31.4027 50.3387 31.4027 49.1027C31.4027 46.6307 30.7367 45.3947 29.4047 45.3947C28.0847 45.3947 27.4247 46.6307 27.4247 49.1027C27.4247 50.3387 27.5927 51.2567 27.9287 51.8567C28.2647 52.4567 28.7567 52.7567 29.4047 52.7567ZM35.0322 53.3867V52.6487L36.2022 52.4147C36.2142 51.9707 36.2202 51.4907 36.2202 50.9747C36.2202 50.4467 36.2202 49.9907 36.2202 49.6067V48.6527C36.2202 48.1607 36.2142 47.7707 36.2022 47.4827C36.2022 47.1827 36.1902 46.8527 36.1662 46.4927L34.9062 46.3307V45.6467L37.9122 44.5127L38.2002 44.6927L38.3262 46.0787C39.2502 45.0347 40.2702 44.5127 41.3862 44.5127C42.1662 44.5127 42.7662 44.7707 43.1862 45.2867C43.6182 45.8027 43.8342 46.6187 43.8342 47.7347V49.6067C43.8342 50.0147 43.8342 50.4767 43.8342 50.9927C43.8342 51.5087 43.8402 51.9887 43.8522 52.4327L44.9502 52.6487V53.3867H40.5042V52.6487L41.6562 52.4147C41.6682 51.9707 41.6742 51.4967 41.6742 50.9927C41.6742 50.4767 41.6742 50.0147 41.6742 49.6067V47.8967C41.6742 47.1887 41.5782 46.7027 41.3862 46.4387C41.1942 46.1627 40.8702 46.0247 40.4142 46.0247C39.7782 46.0247 39.1062 46.3187 38.3982 46.9067V49.6067C38.3982 50.0027 38.3982 50.4587 38.3982 50.9747C38.3982 51.4907 38.4042 51.9767 38.4162 52.4327L39.4782 52.6487V53.3867H35.0322ZM49.0601 53.6387C48.5081 53.6387 47.9981 53.5727 47.5301 53.4407C47.0741 53.3207 46.6181 53.1347 46.1621 52.8827L46.1441 50.7947H47.3501L47.6741 52.4687C48.1061 52.6487 48.5741 52.7387 49.0781 52.7387C49.6901 52.7387 50.1461 52.6307 50.4461 52.4147C50.7461 52.1987 50.8961 51.8987 50.8961 51.5147C50.8961 51.1787 50.7761 50.9087 50.5361 50.7047C50.2961 50.4887 49.8881 50.2847 49.3121 50.0927L48.4121 49.7867C47.7401 49.5707 47.2061 49.2527 46.8101 48.8327C46.4261 48.4127 46.2341 47.8847 46.2341 47.2487C46.2341 46.7447 46.3661 46.2887 46.6301 45.8807C46.8941 45.4607 47.2781 45.1307 47.7821 44.8907C48.2981 44.6387 48.9221 44.5127 49.6541 44.5127C50.1701 44.5127 50.6381 44.5787 51.0581 44.7107C51.4901 44.8307 51.9161 45.0107 52.3361 45.2507L52.2461 47.1407H51.0581L50.7341 45.6287C50.3981 45.4847 50.0261 45.4127 49.6181 45.4127C49.1381 45.4127 48.7661 45.5147 48.5021 45.7187C48.2381 45.9227 48.1061 46.1987 48.1061 46.5467C48.1061 46.8707 48.2141 47.1347 48.4301 47.3387C48.6581 47.5307 49.0781 47.7287 49.6901 47.9327L50.4101 48.1487C51.2861 48.4487 51.9101 48.8207 52.2821 49.2647C52.6541 49.7087 52.8401 50.2427 52.8401 50.8667C52.8401 51.6707 52.5101 52.3367 51.8501 52.8647C51.2021 53.3807 50.2721 53.6387 49.0601 53.6387ZM53.9982 53.3867V52.6487L55.1862 52.4147C55.1982 51.9707 55.2042 51.4907 55.2042 50.9747C55.2042 50.4467 55.2042 49.9907 55.2042 49.6067V48.7607C55.2042 48.2687 55.1982 47.8607 55.1862 47.5367C55.1862 47.2007 55.1742 46.8527 55.1502 46.4927L53.8722 46.3307V45.6467L57.1122 44.5127L57.4002 44.6927L57.3462 47.2307V49.6067C57.3462 49.9907 57.3462 50.4467 57.3462 50.9747C57.3462 51.4907 57.3522 51.9767 57.3642 52.4327L58.4622 52.6487V53.3867H53.9982ZM56.2662 42.8387C55.8822 42.8387 55.5582 42.7187 55.2942 42.4787C55.0302 42.2387 54.8982 41.9327 54.8982 41.5607C54.8982 41.1767 55.0302 40.8647 55.2942 40.6247C55.5582 40.3847 55.8822 40.2647 56.2662 40.2647C56.6502 40.2647 56.9682 40.3847 57.2202 40.6247C57.4842 40.8647 57.6162 41.1767 57.6162 41.5607C57.6162 41.9327 57.4842 42.2387 57.2202 42.4787C56.9682 42.7187 56.6502 42.8387 56.2662 42.8387ZM62.5777 53.6387C62.0257 53.6387 61.5157 53.5727 61.0477 53.4407C60.5917 53.3207 60.1357 53.1347 59.6797 52.8827L59.6617 50.7947H60.8677L61.1917 52.4687C61.6237 52.6487 62.0917 52.7387 62.5957 52.7387C63.2077 52.7387 63.6637 52.6307 63.9637 52.4147C64.2637 52.1987 64.4137 51.8987 64.4137 51.5147C64.4137 51.1787 64.2937 50.9087 64.0537 50.7047C63.8137 50.4887 63.4057 50.2847 62.8297 50.0927L61.9297 49.7867C61.2577 49.5707 60.7237 49.2527 60.3277 48.8327C59.9437 48.4127 59.7517 47.8847 59.7517 47.2487C59.7517 46.7447 59.8837 46.2887 60.1477 45.8807C60.4117 45.4607 60.7957 45.1307 61.2997 44.8907C61.8157 44.6387 62.4397 44.5127 63.1717 44.5127C63.6877 44.5127 64.1557 44.5787 64.5757 44.7107C65.0077 44.8307 65.4337 45.0107 65.8537 45.2507L65.7637 47.1407H64.5757L64.2517 45.6287C63.9157 45.4847 63.5437 45.4127 63.1357 45.4127C62.6557 45.4127 62.2837 45.5147 62.0197 45.7187C61.7557 45.9227 61.6237 46.1987 61.6237 46.5467C61.6237 46.8707 61.7317 47.1347 61.9477 47.3387C62.1757 47.5307 62.5957 47.7287 63.2077 47.9327L63.9277 48.1487C64.8037 48.4487 65.4277 48.8207 65.7997 49.2647C66.1717 49.7087 66.3577 50.2427 66.3577 50.8667C66.3577 51.6707 66.0277 52.3367 65.3677 52.8647C64.7197 53.3807 63.7897 53.6387 62.5777 53.6387ZM70.7378 53.6387C70.0178 53.6387 69.4538 53.4587 69.0458 53.0987C68.6378 52.7387 68.4338 52.1627 68.4338 51.3707C68.4338 51.0947 68.4338 50.8367 68.4338 50.5967C68.4458 50.3447 68.4518 50.0447 68.4518 49.6967V45.8627H67.1198V44.9267L68.5778 44.7467L69.2618 42.2807H70.7198L70.6478 44.7647H72.8078V45.8627H70.6298V51.1727C70.6298 51.6167 70.7138 51.9407 70.8818 52.1447C71.0618 52.3487 71.2958 52.4507 71.5838 52.4507C71.9078 52.4507 72.2738 52.3007 72.6818 52.0007L73.1138 52.4507C72.8858 52.8227 72.5738 53.1167 72.1778 53.3327C71.7818 53.5367 71.3018 53.6387 70.7378 53.6387ZM77.9885 45.3767C77.7005 45.3767 77.4125 45.4727 77.1245 45.6647C76.8485 45.8447 76.6085 46.1447 76.4045 46.5647C76.2125 46.9847 76.0925 47.5547 76.0445 48.2747H78.5105C78.9425 48.2747 79.2305 48.1847 79.3745 48.0047C79.5185 47.8247 79.5905 47.5727 79.5905 47.2487C79.5905 46.6967 79.4345 46.2467 79.1225 45.8987C78.8105 45.5507 78.4325 45.3767 77.9885 45.3767ZM77.9885 53.6387C77.1485 53.6387 76.4105 53.4587 75.7745 53.0987C75.1385 52.7387 74.6405 52.2227 74.2805 51.5507C73.9205 50.8667 73.7405 50.0567 73.7405 49.1207C73.7405 48.1607 73.9445 47.3387 74.3525 46.6547C74.7725 45.9587 75.3125 45.4307 75.9725 45.0707C76.6445 44.6987 77.3585 44.5127 78.1145 44.5127C78.8225 44.5127 79.4405 44.6627 79.9685 44.9627C80.4965 45.2627 80.9045 45.6827 81.1925 46.2227C81.4925 46.7627 81.6425 47.3987 81.6425 48.1307C81.6425 48.5147 81.6065 48.8447 81.5345 49.1207H76.0265C76.0745 50.1527 76.3445 50.9267 76.8365 51.4427C77.3405 51.9587 77.9705 52.2167 78.7265 52.2167C79.2545 52.2167 79.6985 52.1147 80.0585 51.9107C80.4305 51.6947 80.7665 51.4187 81.0665 51.0827L81.5885 51.5507C81.2405 52.2107 80.7605 52.7267 80.1485 53.0987C79.5485 53.4587 78.8285 53.6387 77.9885 53.6387ZM82.9502 53.3867V52.6487L84.1202 52.4147C84.1322 51.9707 84.1382 51.4907 84.1382 50.9747C84.1382 50.4467 84.1382 49.9907 84.1382 49.6067V48.6527C84.1382 48.1607 84.1322 47.7707 84.1202 47.4827C84.1202 47.1827 84.1082 46.8527 84.0842 46.4927L82.8242 46.3307V45.6467L85.8302 44.5127L86.1182 44.6927L86.2442 46.0787C87.1682 45.0347 88.1882 44.5127 89.3042 44.5127C90.0842 44.5127 90.6842 44.7707 91.1042 45.2867C91.5362 45.8027 91.7522 46.6187 91.7522 47.7347V49.6067C91.7522 50.0147 91.7522 50.4767 91.7522 50.9927C91.7522 51.5087 91.7582 51.9887 91.7702 52.4327L92.8682 52.6487V53.3867H88.4222V52.6487L89.5742 52.4147C89.5862 51.9707 89.5922 51.4967 89.5922 50.9927C89.5922 50.4767 89.5922 50.0147 89.5922 49.6067V47.8967C89.5922 47.1887 89.4962 46.7027 89.3042 46.4387C89.1122 46.1627 88.7882 46.0247 88.3322 46.0247C87.6962 46.0247 87.0242 46.3187 86.3162 46.9067V49.6067C86.3162 50.0027 86.3162 50.4587 86.3162 50.9747C86.3162 51.4907 86.3222 51.9767 86.3342 52.4327L87.3962 52.6487V53.3867H82.9502ZM97.0522 53.6387C96.3322 53.6387 95.7682 53.4587 95.3602 53.0987C94.9522 52.7387 94.7482 52.1627 94.7482 51.3707C94.7482 51.0947 94.7482 50.8367 94.7482 50.5967C94.7602 50.3447 94.7662 50.0447 94.7662 49.6967V45.8627H93.4342V44.9267L94.8922 44.7467L95.5762 42.2807H97.0342L96.9622 44.7647H99.1222V45.8627H96.9442V51.1727C96.9442 51.6167 97.0282 51.9407 97.1962 52.1447C97.3762 52.3487 97.6102 52.4507 97.8982 52.4507C98.2222 52.4507 98.5882 52.3007 98.9962 52.0007L99.4282 52.4507C99.2002 52.8227 98.8882 53.1167 98.4922 53.3327C98.0962 53.5367 97.6162 53.6387 97.0522 53.6387ZM20.5855 73.6027C20.1055 73.6027 19.7155 73.4827 19.4155 73.2427C19.1155 73.0027 18.9115 72.6727 18.8035 72.2527C18.3595 72.7087 17.9575 73.0567 17.5975 73.2967C17.2375 73.5247 16.7695 73.6387 16.1935 73.6387C15.5215 73.6387 14.9515 73.4467 14.4835 73.0627C14.0275 72.6667 13.7995 72.1027 13.7995 71.3707C13.7995 70.9867 13.8895 70.6327 14.0695 70.3087C14.2495 69.9727 14.5675 69.6607 15.0235 69.3727C15.4915 69.0847 16.1575 68.8027 17.0215 68.5267C17.2615 68.4427 17.5315 68.3587 17.8315 68.2747C18.1315 68.1907 18.4375 68.1067 18.7495 68.0227V67.5187C18.7495 66.6787 18.6295 66.1147 18.3895 65.8267C18.1615 65.5267 17.7535 65.3767 17.1655 65.3767C17.0575 65.3767 16.9375 65.3827 16.8055 65.3947C16.6855 65.4067 16.5595 65.4247 16.4275 65.4487L16.2115 66.4387C16.1635 66.8707 16.0375 67.1887 15.8335 67.3927C15.6295 67.5967 15.3775 67.6987 15.0775 67.6987C14.5015 67.6987 14.1655 67.4287 14.0695 66.8887C14.1775 66.1687 14.5615 65.5927 15.2215 65.1607C15.8935 64.7287 16.7755 64.5127 17.8675 64.5127C18.9115 64.5127 19.6735 64.7647 20.1535 65.2687C20.6335 65.7607 20.8735 66.5947 20.8735 67.7707V71.6947C20.8735 72.2347 21.0475 72.5047 21.3955 72.5047C21.6235 72.5047 21.8335 72.3727 22.0255 72.1087L22.4395 72.4687C22.2235 72.8767 21.9655 73.1707 21.6655 73.3507C21.3775 73.5187 21.0175 73.6027 20.5855 73.6027ZM15.9055 70.9927C15.9055 71.4607 16.0255 71.8027 16.2655 72.0187C16.5175 72.2227 16.8235 72.3247 17.1835 72.3247C17.3875 72.3247 17.5915 72.2767 17.7955 72.1807C17.9995 72.0847 18.3175 71.8867 18.7495 71.5867V68.7427C18.4975 68.8267 18.2575 68.9047 18.0295 68.9767C17.8135 69.0487 17.6275 69.1147 17.4715 69.1747C16.8715 69.4147 16.4575 69.6907 16.2295 70.0027C16.0135 70.3147 15.9055 70.6447 15.9055 70.9927ZM27.3631 73.6387C26.5471 73.6387 25.8151 73.4647 25.1671 73.1167C24.5191 72.7567 24.0091 72.2407 23.6371 71.5687C23.2771 70.8847 23.0971 70.0627 23.0971 69.1027C23.0971 68.1307 23.3011 67.3027 23.7091 66.6187C24.1291 65.9347 24.6811 65.4127 25.3651 65.0527C26.0491 64.6927 26.7931 64.5127 27.5971 64.5127C28.1851 64.5127 28.7131 64.6267 29.1811 64.8547C29.6611 65.0707 30.0451 65.3647 30.3331 65.7367C30.6331 66.1087 30.8131 66.5287 30.8731 66.9967C30.7291 67.5247 30.3871 67.7887 29.8471 67.7887C29.1751 67.7887 28.7851 67.3687 28.6771 66.5287L28.4431 65.4487C28.3351 65.4247 28.2271 65.4067 28.1191 65.3947C28.0111 65.3827 27.9031 65.3767 27.7951 65.3767C27.3631 65.3767 26.9611 65.5027 26.5891 65.7547C26.2291 65.9947 25.9351 66.3727 25.7071 66.8887C25.4791 67.4047 25.3651 68.0587 25.3651 68.8507C25.3651 69.9427 25.6111 70.7767 26.1031 71.3527C26.6071 71.9287 27.2611 72.2167 28.0651 72.2167C28.5451 72.2167 28.9771 72.1087 29.3611 71.8927C29.7451 71.6767 30.0691 71.3827 30.3331 71.0107L30.8731 71.4067C30.5731 72.1387 30.1231 72.6967 29.5231 73.0807C28.9351 73.4527 28.2151 73.6387 27.3631 73.6387ZM32.0971 73.3867V72.6487L33.2491 72.4327C33.2611 71.9767 33.2671 71.4907 33.2671 70.9747C33.2671 70.4467 33.2671 69.9907 33.2671 69.6067V68.6527C33.2671 68.1607 33.2611 67.7707 33.2491 67.4827C33.2491 67.1827 33.2371 66.8527 33.2131 66.4927L31.9531 66.3307V65.6467L34.9591 64.5127L35.2471 64.6927L35.4271 66.8167C35.7031 66.0727 36.0751 65.5027 36.5431 65.1067C37.0111 64.7107 37.4791 64.5127 37.9471 64.5127C38.2711 64.5127 38.5651 64.5967 38.8291 64.7647C39.1051 64.9327 39.2851 65.1727 39.3691 65.4847C39.3571 65.9287 39.2491 66.2767 39.0451 66.5287C38.8411 66.7687 38.5591 66.8887 38.1991 66.8887C37.7671 66.8887 37.3591 66.6727 36.9751 66.2407L36.8131 66.0607C36.1771 66.5887 35.7211 67.3327 35.4451 68.2927V69.6067C35.4451 69.9787 35.4451 70.4227 35.4451 70.9387C35.4451 71.4427 35.4511 71.9167 35.4631 72.3607L36.9391 72.6487V73.3867H32.0971ZM44.2055 73.6387C43.3895 73.6387 42.6515 73.4587 41.9915 73.0987C41.3435 72.7387 40.8275 72.2167 40.4435 71.5327C40.0595 70.8487 39.8675 70.0327 39.8675 69.0847C39.8675 68.1247 40.0655 67.3027 40.4615 66.6187C40.8695 65.9347 41.4035 65.4127 42.0635 65.0527C42.7235 64.6927 43.4375 64.5127 44.2055 64.5127C44.9735 64.5127 45.6875 64.6927 46.3475 65.0527C47.0075 65.4127 47.5415 65.9347 47.9495 66.6187C48.3575 67.2907 48.5615 68.1127 48.5615 69.0847C48.5615 70.0447 48.3635 70.8667 47.9675 71.5507C47.5835 72.2227 47.0615 72.7387 46.4015 73.0987C45.7535 73.4587 45.0215 73.6387 44.2055 73.6387ZM44.2055 72.7567C44.8535 72.7567 45.3455 72.4567 45.6815 71.8567C46.0295 71.2567 46.2035 70.3387 46.2035 69.1027C46.2035 66.6307 45.5375 65.3947 44.2055 65.3947C42.8855 65.3947 42.2255 66.6307 42.2255 69.1027C42.2255 70.3387 42.3935 71.2567 42.7295 71.8567C43.0655 72.4567 43.5575 72.7567 44.2055 72.7567ZM52.857 73.6387C52.305 73.6387 51.795 73.5727 51.327 73.4407C50.871 73.3207 50.415 73.1347 49.959 72.8827L49.941 70.7947H51.147L51.471 72.4687C51.903 72.6487 52.371 72.7387 52.875 72.7387C53.487 72.7387 53.943 72.6307 54.243 72.4147C54.543 72.1987 54.693 71.8987 54.693 71.5147C54.693 71.1787 54.573 70.9087 54.333 70.7047C54.093 70.4887 53.685 70.2847 53.109 70.0927L52.209 69.7867C51.537 69.5707 51.003 69.2527 50.607 68.8327C50.223 68.4127 50.031 67.8847 50.031 67.2487C50.031 66.7447 50.163 66.2887 50.427 65.8807C50.691 65.4607 51.075 65.1307 51.579 64.8907C52.095 64.6387 52.719 64.5127 53.451 64.5127C53.967 64.5127 54.435 64.5787 54.855 64.7107C55.287 64.8307 55.713 65.0107 56.133 65.2507L56.043 67.1407H54.855L54.531 65.6287C54.195 65.4847 53.823 65.4127 53.415 65.4127C52.935 65.4127 52.563 65.5147 52.299 65.7187C52.035 65.9227 51.903 66.1987 51.903 66.5467C51.903 66.8707 52.011 67.1347 52.227 67.3387C52.455 67.5307 52.875 67.7287 53.487 67.9327L54.207 68.1487C55.083 68.4487 55.707 68.8207 56.079 69.2647C56.451 69.7087 56.637 70.2427 56.637 70.8667C56.637 71.6707 56.307 72.3367 55.647 72.8647C54.999 73.3807 54.069 73.6387 52.857 73.6387ZM60.8551 73.6387C60.3031 73.6387 59.7931 73.5727 59.3251 73.4407C58.8691 73.3207 58.4131 73.1347 57.9571 72.8827L57.9391 70.7947H59.1451L59.4691 72.4687C59.9011 72.6487 60.3691 72.7387 60.8731 72.7387C61.4851 72.7387 61.9411 72.6307 62.2411 72.4147C62.5411 72.1987 62.6911 71.8987 62.6911 71.5147C62.6911 71.1787 62.5711 70.9087 62.3311 70.7047C62.0911 70.4887 61.6831 70.2847 61.1071 70.0927L60.2071 69.7867C59.5351 69.5707 59.0011 69.2527 58.6051 68.8327C58.2211 68.4127 58.0291 67.8847 58.0291 67.2487C58.0291 66.7447 58.1611 66.2887 58.4251 65.8807C58.6891 65.4607 59.0731 65.1307 59.5771 64.8907C60.0931 64.6387 60.7171 64.5127 61.4491 64.5127C61.9651 64.5127 62.4331 64.5787 62.8531 64.7107C63.2851 64.8307 63.7111 65.0107 64.1311 65.2507L64.0411 67.1407H62.8531L62.5291 65.6287C62.1931 65.4847 61.8211 65.4127 61.4131 65.4127C60.9331 65.4127 60.5611 65.5147 60.2971 65.7187C60.0331 65.9227 59.9011 66.1987 59.9011 66.5467C59.9011 66.8707 60.0091 67.1347 60.2251 67.3387C60.4531 67.5307 60.8731 67.7287 61.4851 67.9327L62.2051 68.1487C63.0811 68.4487 63.7051 68.8207 64.0771 69.2647C64.4491 69.7087 64.6351 70.2427 64.6351 70.8667C64.6351 71.6707 64.3051 72.3367 63.6451 72.8647C62.9971 73.3807 62.0671 73.6387 60.8551 73.6387ZM72.2125 69.1207C72.2125 70.2127 72.4165 71.0287 72.8245 71.5687C73.2445 72.0967 73.7725 72.3607 74.4085 72.3607C74.7205 72.3607 75.0025 72.3007 75.2545 72.1807C75.5185 72.0487 75.7645 71.8627 75.9925 71.6227V66.4567C75.4645 66.0007 74.9425 65.7727 74.4265 65.7727C73.8265 65.7727 73.3045 66.0427 72.8605 66.5827C72.4285 67.1227 72.2125 67.9687 72.2125 69.1207ZM76.2085 73.5847L76.0645 72.4507C75.7285 72.8347 75.3565 73.1287 74.9485 73.3327C74.5405 73.5367 74.0725 73.6387 73.5445 73.6387C72.8365 73.6387 72.2065 73.4587 71.6545 73.0987C71.1145 72.7387 70.6885 72.2227 70.3765 71.5507C70.0645 70.8787 69.9085 70.0807 69.9085 69.1567C69.9085 68.2087 70.0825 67.3867 70.4305 66.6907C70.7905 65.9947 71.2645 65.4607 71.8525 65.0887C72.4525 64.7047 73.1065 64.5127 73.8145 64.5127C74.2705 64.5127 74.6785 64.5967 75.0385 64.7647C75.4105 64.9327 75.7585 65.2087 76.0825 65.5927V61.8847L74.6785 61.7047V61.0027L77.9725 60.1927L78.2425 60.3547L78.1705 62.8927V72.4507L79.3405 72.6487V73.3867L76.2085 73.5847ZM84.5979 65.3767C84.3099 65.3767 84.0219 65.4727 83.7339 65.6647C83.4579 65.8447 83.2179 66.1447 83.0139 66.5647C82.8219 66.9847 82.7019 67.5547 82.6539 68.2747H85.1199C85.5519 68.2747 85.8399 68.1847 85.9839 68.0047C86.1279 67.8247 86.1999 67.5727 86.1999 67.2487C86.1999 66.6967 86.0439 66.2467 85.7319 65.8987C85.4199 65.5507 85.0419 65.3767 84.5979 65.3767ZM84.5979 73.6387C83.7579 73.6387 83.0199 73.4587 82.3839 73.0987C81.7479 72.7387 81.2499 72.2227 80.8899 71.5507C80.5299 70.8667 80.3499 70.0567 80.3499 69.1207C80.3499 68.1607 80.5539 67.3387 80.9619 66.6547C81.3819 65.9587 81.9219 65.4307 82.5819 65.0707C83.2539 64.6987 83.9679 64.5127 84.7239 64.5127C85.4319 64.5127 86.0499 64.6627 86.5779 64.9627C87.1059 65.2627 87.5139 65.6827 87.8019 66.2227C88.1019 66.7627 88.2519 67.3987 88.2519 68.1307C88.2519 68.5147 88.2159 68.8447 88.1439 69.1207H82.6359C82.6839 70.1527 82.9539 70.9267 83.4459 71.4427C83.9499 71.9587 84.5799 72.2167 85.3359 72.2167C85.8639 72.2167 86.3079 72.1147 86.6679 71.9107C87.0399 71.6947 87.3759 71.4187 87.6759 71.0827L88.1979 71.5507C87.8499 72.2107 87.3699 72.7267 86.7579 73.0987C86.1579 73.4587 85.4379 73.6387 84.5979 73.6387ZM94.5661 65.5207V64.7647H97.9861V65.5207L96.9781 65.7367L94.0261 73.4587H92.9641L89.7061 65.6827L88.7701 65.5207V64.7647H93.5041V65.5207L92.1181 65.7367L94.0981 70.9567L95.8801 65.7547L94.5661 65.5207ZM98.6994 73.3867V72.6487L99.8874 72.4147C99.8994 71.9707 99.9054 71.4907 99.9054 70.9747C99.9054 70.4467 99.9054 69.9907 99.9054 69.6067V68.7607C99.9054 68.2687 99.8994 67.8607 99.8874 67.5367C99.8874 67.2007 99.8754 66.8527 99.8514 66.4927L98.5734 66.3307V65.6467L101.813 64.5127L102.101 64.6927L102.047 67.2307V69.6067C102.047 69.9907 102.047 70.4467 102.047 70.9747C102.047 71.4907 102.053 71.9767 102.065 72.4327L103.163 72.6487V73.3867H98.6994ZM100.967 62.8387C100.583 62.8387 100.259 62.7187 99.9954 62.4787C99.7314 62.2387 99.5994 61.9327 99.5994 61.5607C99.5994 61.1767 99.7314 60.8647 99.9954 60.6247C100.259 60.3847 100.583 60.2647 100.967 60.2647C101.351 60.2647 101.669 60.3847 101.921 60.6247C102.185 60.8647 102.317 61.1767 102.317 61.5607C102.317 61.9327 102.185 62.2387 101.921 62.4787C101.669 62.7187 101.351 62.8387 100.967 62.8387ZM108.539 73.6387C107.723 73.6387 106.991 73.4647 106.343 73.1167C105.695 72.7567 105.185 72.2407 104.813 71.5687C104.453 70.8847 104.273 70.0627 104.273 69.1027C104.273 68.1307 104.477 67.3027 104.885 66.6187C105.305 65.9347 105.857 65.4127 106.541 65.0527C107.225 64.6927 107.969 64.5127 108.773 64.5127C109.361 64.5127 109.889 64.6267 110.357 64.8547C110.837 65.0707 111.221 65.3647 111.509 65.7367C111.809 66.1087 111.989 66.5287 112.049 66.9967C111.905 67.5247 111.563 67.7887 111.023 67.7887C110.351 67.7887 109.961 67.3687 109.853 66.5287L109.619 65.4487C109.511 65.4247 109.403 65.4067 109.295 65.3947C109.187 65.3827 109.079 65.3767 108.971 65.3767C108.539 65.3767 108.137 65.5027 107.765 65.7547C107.405 65.9947 107.111 66.3727 106.883 66.8887C106.655 67.4047 106.541 68.0587 106.541 68.8507C106.541 69.9427 106.787 70.7767 107.279 71.3527C107.783 71.9287 108.437 72.2167 109.241 72.2167C109.721 72.2167 110.153 72.1087 110.537 71.8927C110.921 71.6767 111.245 71.3827 111.509 71.0107L112.049 71.4067C111.749 72.1387 111.299 72.6967 110.699 73.0807C110.111 73.4527 109.391 73.6387 108.539 73.6387ZM117.487 65.3767C117.199 65.3767 116.911 65.4727 116.623 65.6647C116.347 65.8447 116.107 66.1447 115.903 66.5647C115.711 66.9847 115.591 67.5547 115.543 68.2747H118.009C118.441 68.2747 118.729 68.1847 118.873 68.0047C119.017 67.8247 119.089 67.5727 119.089 67.2487C119.089 66.6967 118.933 66.2467 118.621 65.8987C118.309 65.5507 117.931 65.3767 117.487 65.3767ZM117.487 73.6387C116.647 73.6387 115.909 73.4587 115.273 73.0987C114.637 72.7387 114.139 72.2227 113.779 71.5507C113.419 70.8667 113.239 70.0567 113.239 69.1207C113.239 68.1607 113.443 67.3387 113.851 66.6547C114.271 65.9587 114.811 65.4307 115.471 65.0707C116.143 64.6987 116.857 64.5127 117.613 64.5127C118.321 64.5127 118.939 64.6627 119.467 64.9627C119.995 65.2627 120.403 65.6827 120.691 66.2227C120.991 66.7627 121.141 67.3987 121.141 68.1307C121.141 68.5147 121.105 68.8447 121.033 69.1207H115.525C115.573 70.1527 115.843 70.9267 116.335 71.4427C116.839 71.9587 117.469 72.2167 118.225 72.2167C118.753 72.2167 119.197 72.1147 119.557 71.9107C119.929 71.6947 120.265 71.4187 120.565 71.0827L121.087 71.5507C120.739 72.2107 120.259 72.7267 119.647 73.0987C119.047 73.4587 118.327 73.6387 117.487 73.6387ZM125.472 73.6387C124.92 73.6387 124.41 73.5727 123.942 73.4407C123.486 73.3207 123.03 73.1347 122.574 72.8827L122.556 70.7947H123.762L124.086 72.4687C124.518 72.6487 124.986 72.7387 125.49 72.7387C126.102 72.7387 126.558 72.6307 126.858 72.4147C127.158 72.1987 127.308 71.8987 127.308 71.5147C127.308 71.1787 127.188 70.9087 126.948 70.7047C126.708 70.4887 126.3 70.2847 125.724 70.0927L124.824 69.7867C124.152 69.5707 123.618 69.2527 123.222 68.8327C122.838 68.4127 122.646 67.8847 122.646 67.2487C122.646 66.7447 122.778 66.2887 123.042 65.8807C123.306 65.4607 123.69 65.1307 124.194 64.8907C124.71 64.6387 125.334 64.5127 126.066 64.5127C126.582 64.5127 127.05 64.5787 127.47 64.7107C127.902 64.8307 128.328 65.0107 128.748 65.2507L128.658 67.1407H127.47L127.146 65.6287C126.81 65.4847 126.438 65.4127 126.03 65.4127C125.55 65.4127 125.178 65.5147 124.914 65.7187C124.65 65.9227 124.518 66.1987 124.518 66.5467C124.518 66.8707 124.626 67.1347 124.842 67.3387C125.07 67.5307 125.49 67.7287 126.102 67.9327L126.822 68.1487C127.698 68.4487 128.322 68.8207 128.694 69.2647C129.066 69.7087 129.252 70.2427 129.252 70.8667C129.252 71.6707 128.922 72.3367 128.262 72.8647C127.614 73.3807 126.684 73.6387 125.472 73.6387Z" fill="#38E8AD" fill-opacity="0.95"/>
</svg>
