<svg width="101" height="89" viewBox="0 0 101 89" fill="none" xmlns="http://www.w3.org/2000/svg">
<path d="M69.5426 0C77.5729 0 84.0853 6.49659 84.0853 14.5063C84.0853 22.516 77.5724 29.0126 69.5426 29.0126C61.5102 29.0126 55 22.516 55 14.5063C55 6.49659 61.5102 0 69.5426 0Z" fill="#A6A7AE" fill-opacity="0.5"/>
<path d="M96.1993 88.2484H49.408H4.70126C0.684816 88.2484 -1.10393 85.3498 0.706652 81.7736L25.6645 32.4635C27.4728 28.8878 30.9193 28.5687 33.36 31.7501L58.456 64.4646C60.8967 67.6465 65.1627 67.9172 67.9862 65.0665L74.1256 58.8651C76.9469 56.0144 81.1037 56.3673 83.4063 59.6483L99.304 82.3004C101.602 85.5862 100.216 88.2484 96.1993 88.2484Z" fill="#A6A7AE" fill-opacity="0.5"/>
</svg>
