<svg width="75" height="61" viewBox="0 0 75 61" fill="none" xmlns="http://www.w3.org/2000/svg">
<path fill-rule="evenodd" clip-rule="evenodd" d="M28.2325 55.9836C25.1784 59.1087 21.3786 60.6712 16.833 60.6712C12.0032 60.6712 7.99032 58.8956 4.79419 55.3443C1.59806 51.7931 0 47.3185 0 41.9206C0 33.5396 2.91203 25.4428 8.73609 17.63C14.276 9.9593 21.7337 4.27729 31.109 0.583984L35.7967 7.18932C28.268 10.7406 22.9411 15.0021 19.816 19.9738C17.6853 23.5251 16.6199 25.9399 16.6199 27.2184C16.6199 28.2128 17.2591 28.852 18.5376 29.1361C22.9411 29.8463 26.4213 31.5509 28.9782 34.2499C31.5351 36.9488 32.8136 40.287 32.8136 44.2644C32.8136 48.9521 31.2866 52.8585 28.2325 55.9836ZM67.4356 55.9836C64.3815 59.1087 60.5817 60.6712 56.0361 60.6712C51.2064 60.6712 47.1935 58.8956 43.9973 55.3443C40.8012 51.7931 39.2031 47.3185 39.2031 41.9206C39.2031 33.5396 42.1152 25.4428 47.9392 17.63C53.4792 9.9593 60.9368 4.27729 70.3121 0.583984L74.9998 7.18932C67.4711 10.7406 62.1442 15.0021 59.0191 19.9738C56.8884 23.5251 55.823 25.9399 55.823 27.2184C55.823 28.2128 56.4622 28.852 57.7407 29.1361C62.1442 29.8463 65.6245 31.5509 68.1814 34.2499C70.7383 36.9488 72.0167 40.287 72.0167 44.2644C72.0167 48.9521 70.4897 52.8585 67.4356 55.9836Z" fill="#13157F" fill-opacity="0.08"/>
</svg>
