<svg width="20" height="20" viewBox="0 0 20 20" fill="none" xmlns="http://www.w3.org/2000/svg">
<path d="M11.8327 2.39575C10.8105 2.39575 9.83017 2.80181 9.10737 3.52461C8.38458 4.24741 7.97852 5.22773 7.97852 6.24992V8.39575H5.91602C5.81246 8.39575 5.72852 8.4797 5.72852 8.58325V11.4166C5.72852 11.5201 5.81246 11.6041 5.91602 11.6041H7.97852V17.4166C7.97852 17.5201 8.06246 17.6041 8.16602 17.6041H10.9993C11.1029 17.6041 11.1868 17.5201 11.1868 17.4166V11.6041H13.2676C13.3537 11.6041 13.4287 11.5455 13.4495 11.4621L14.1579 8.62873C14.1874 8.51039 14.0979 8.39575 13.976 8.39575H11.1868V6.24992C11.1868 6.07863 11.2549 5.91436 11.376 5.79325C11.4971 5.67213 11.6614 5.60409 11.8327 5.60409H13.9993C14.1029 5.60409 14.1868 5.52014 14.1868 5.41659V2.58325C14.1868 2.4797 14.1029 2.39575 13.9993 2.39575H11.8327Z" fill="#D6DDFF" fill-opacity="0.3"/>
</svg>
