<svg width="20" height="20" viewBox="0 0 20 20" fill="none" xmlns="http://www.w3.org/2000/svg">
<path d="M18.1743 5.18928C18.2226 5.12197 18.1513 5.03507 18.074 5.06501C17.5251 5.27778 16.9514 5.42134 16.3662 5.49209C17.0178 5.10282 17.5206 4.51025 17.7994 3.8087C17.8278 3.73723 17.7498 3.67341 17.6825 3.71059C17.0769 4.04503 16.4237 4.28586 15.7453 4.42456C15.7169 4.43037 15.6876 4.4207 15.6677 4.39966C15.1585 3.86243 14.4883 3.50474 13.7577 3.38113C13.0117 3.25492 12.245 3.37988 11.5777 3.73641C10.9104 4.09294 10.3803 4.66086 10.0706 5.35112C9.77606 6.00742 9.69659 6.73901 9.84185 7.44161C9.85312 7.49613 9.81045 7.5476 9.75489 7.54415C8.43484 7.46216 7.14509 7.11105 5.96508 6.51197C4.78807 5.91441 3.7458 5.08311 2.90174 4.06933C2.86428 4.02434 2.79328 4.03016 2.76598 4.08196C2.50334 4.58035 2.36583 5.13584 2.3662 5.70042C2.36514 6.2624 2.50305 6.81593 2.76766 7.31172C3.03228 7.80751 3.41538 8.23018 3.88287 8.54209C3.3871 8.5286 2.90099 8.40603 2.45891 8.18381C2.40194 8.15518 2.3336 8.19595 2.33656 8.25965C2.37103 9.00068 2.64308 9.74462 3.11396 10.3154C3.61506 10.9228 4.31058 11.3385 5.08287 11.4921C4.78558 11.5826 4.47693 11.6303 4.1662 11.6338C3.99708 11.6318 3.8283 11.6193 3.66081 11.5964C3.59872 11.5879 3.54801 11.6469 3.56975 11.7057C3.8001 12.3286 4.20703 12.8721 4.7421 13.2689C5.31414 13.6931 6.00418 13.9284 6.7162 13.9421C5.51387 14.8881 4.02944 15.4045 2.49954 15.4088C2.34233 15.4093 2.1852 15.4042 2.02844 15.3935C1.9401 15.3875 1.89947 15.5052 1.97561 15.5504C3.46625 16.435 5.17002 16.9025 6.90787 16.9004C8.19095 16.9137 9.46381 16.6713 10.6521 16.1872C11.8404 15.703 12.9204 14.987 13.8289 14.0808C14.7374 13.1747 15.4562 12.0966 15.9433 10.9095C16.4305 9.72244 16.6762 8.45019 16.6662 7.16709V6.76723C16.6662 6.74092 16.6786 6.71618 16.6996 6.70032C17.2649 6.27354 17.762 5.76401 18.1743 5.18928Z" fill="#D6DDFF" fill-opacity="0.3"/>
</svg>
